<svg width="250" height="400" viewBox="0 0 283 223" fill="#CEC3BC" xmlns="http://www.w3.org/2000/svg">
<path d="M100.888 86.2879L100.379 88.1398L100.718 89.3654L101.765 90.6726L103.32 91.2173L107.761 91.3535L109.232 90.2096L110.646 90.6454L112.343 89.7739L112.88 90.5365L113.898 88.6573L115.878 89.2837L115.482 89.6922L115.199 91.1356L115.284 95.248L115.991 97.2089L117.264 97.7264L118.989 97.4812L121.28 94.431L122.101 94.1042L123.515 95.9016L123.147 98.2438L127.05 99.197L126.654 101.512L129.03 102.002L130.868 104.753L133.018 104.535L132.82 107.367L134.658 105.406L138.816 104.971L139.58 105.733L142.889 105.706L143.228 106.278L143.03 109.029L145.435 107.803L145.35 108.838L146.424 109.301L150.837 107.504L149.536 112.978L152.166 112.324L151.6 113.359L152.505 114.557L151.515 117.145L150.526 117.308L151.233 118.098L150.554 118.779L153.722 120.603L152.618 122.918L151.459 123.272L152.958 124.988L151.204 127.82L151.657 131.96L146.707 132.75L145.35 131.089L143.313 131.279L141.842 133.758L137.77 133.213L137.176 135.283L135.846 135.228L134.913 136.862L132.452 137.026L129.539 139.096L130.755 140.675L133.414 142.2L133.98 142.173L135.337 140.675L136.893 141.002L137.939 141.765L137.034 145.305L137.628 146.885L134.97 148.873L137.77 153.584L136.808 155.463L136.865 159.875L137.204 161.673L138.392 162.054L138.958 167.773L141.107 171.995L139.919 174.773L128.917 171.859L123.317 172.648L122.327 172.376L118.226 170.225L118.82 170.279L118.735 168.672L118.311 166.984L117.971 166.847L118.282 165.567L118.65 164.723L119.187 164.097L120.517 162.898L122.214 161.727L123.967 160.883L123.996 160.148L123.486 159.276L123.034 158.241L121.818 153.503L121.082 153.149L120.29 153.257L118.848 153.911L117.801 153.394L117.971 151.406L119.385 146.994L119.781 144.978L120.121 144.079L120.884 143.017L122.61 141.71L123.345 140.92L123.515 139.749L123.062 139.041L122.157 138.278L121.167 137.679L120.517 137.434L119.583 137.816L119.64 139.286L119.103 139.804L117.773 139.177L115.765 135.038L114.238 133.73L112.682 132.859L110.25 130.244L108.836 129.591L107.28 129.754L102.613 131.633L100.945 131.661L99.6435 131.061L98.399 130.19L96.8717 129.455L93.8454 129.1L90.6493 129.346L89.6311 129.7L89.0654 130.326L87.7361 132.505L87.227 133.758L86.6613 133.948L86.3785 134.656L83.8047 132.314L83.1542 127.793V122.646L82.5319 118.37L81.344 116.273L79.8733 114.911L78.2894 114.149L76.6207 113.822L71.8973 113.795L70.9923 113.141L71.6994 111.888L71.8125 110.99L71.3317 110.418L70.2852 110.118L69.2387 110.2L68.475 110.663L67.768 111.371L66.7497 112.106L63.5537 113.25L61.7718 113.441L60.4991 113.114L57.303 111.48L56.3414 110.744L55.1818 109.328L54.7858 108.075L54.6727 104.535L52.7494 98.271L52.1554 95.0574L53.1737 93.2054L52.3534 90.5365L51.7595 89.5015L50.7696 89.202L49.7513 89.0658L49.1574 88.4122L48.2523 86.2879L47.2341 84.5176L48.1392 84.2181L51.4201 82.584L54.4181 84.2453L57.5293 83.8095L59.1132 85.9611L59.0001 87.4862L60.8102 88.7662L61.9415 89.0113L62.2527 88.1671L65.5618 84.8172L68.8427 82.4478L71.5297 83.5372L74.4429 82.6929L74.9237 86.2062L79.7602 86.2879L81.8249 87.6496L84.7946 82.0665L86.8876 80.9227L87.6795 82.4478L90.8473 81.1406L92.0635 84.6266L95.005 84.2998L95.9949 85.253L100.124 84.3542L100.888 86.2879ZM25.5407 90.0735L25.2578 89.0113L23.7588 84.4087L25.7104 83.2648L26.1912 83.1287L27.2377 84.0546L29.3306 83.6461L29.6418 82.6112L32.4135 81.5218L30.9145 79.8061L30.9711 79.3158L35.2419 77.6545L36.3732 78.3626L37.052 82.475L33.2338 83.6461L31.5368 84.6538L30.2074 86.0428L28.0013 89.7467L27.0397 90.4547L25.5407 90.0735Z" fill="#CEC3BC" stroke="#1E3D5D"  stroke-linecap="round" stroke-linejoin="round"/>
<path d="M247.142 84.3813L248.528 86.0699L246.831 88.6027L246.18 88.875L244.427 87.9763L241.796 88.3576L238.713 84.3813L236.818 84.8715L235.546 83.5371L236.337 82.3932L236.988 81.903L237.723 82.1753L239.222 83.7822L239.958 84.2724L246.322 84.109L247.142 84.3813ZM230.002 78.0902L226.438 81.5762L220.074 83.4009L220.216 85.1984L218.236 86.8869L217.076 87.1592L215.634 85.6341L215.068 87.595L213.428 87.7584L211.448 87.0231L210.543 84.8443L209.553 84.4086L206.187 85.5252L204.716 86.778L204.377 88.0307L202.03 86.8052L199.682 88.2214L199.145 86.9414L198.607 88.0035L194.252 87.4588L195.072 89.2835L194.138 90.4001L189.245 89.0112L190.66 86.0699L189.245 85.2528L190.235 82.9924L189.641 80.9498L192.951 77.6272L191.338 77.0825L191.847 73.3241L193.064 70.0288L194.506 70.519L194.846 70.1649L195.496 67.0602L194.421 66.1615L191.847 66.1342L191.593 65.2355L188.765 66.5427L187.548 65.2355L186.332 65.7529L185.851 65.3989L184.89 62.9478L187.831 60.415L187.888 57.9366L190.971 56.5749L190.49 53.9604L191.197 53.7698L191.593 54.6685L193.431 53.9332L191.452 51.4548L189.839 50.7467L187.775 51.0191V53.8242L186.474 54.614L184.975 53.6881L183.504 54.26L182.316 52.0268L180.449 52.517L182.57 49.6846V48.1322L188.425 47.0156L191.395 43.3662L195.072 43.1756L196.712 40.8334L199.088 41.5143L200.927 39.9347L200.7 35.3865L197.702 32.6903L198.522 28.3872L199.399 27.6791L201.69 27.1345L210.345 27.4885L211.872 26.9438L214.955 24.8468L216.398 24.1659L217.981 24.3565L219.707 25.3914L221.064 27.1072L221.573 29.286L221.828 31.846L223.497 33.235L227.626 34.4333L228.644 35.1142L229.323 35.904L230.143 36.4486H231.388L234.442 35.8222L235.404 35.9312L236.592 36.6121L238.119 38.6546L239.109 39.4444L241.344 38.8997L242.588 39.0087L243.437 40.9696L242.39 41.95L242.164 43.23L243.833 44.973L243.154 45.4088L242.418 45.6811L241.627 45.8173L240.835 45.7356L241.315 47.3424L240.778 48.8676L240.382 49.6574L239.816 50.3927L238.968 49.6846L238.374 50.0386L238.006 51.128L237.837 52.6259L238.826 53.9332L237.667 56.6566L234.782 61.1231L236.394 60.6873L237.101 60.7146L237.837 61.1231L236.988 62.4848L235.715 65.0721L234.782 66.461L234.414 66.7334L232.717 67.3598L227.456 73.0518L227.598 75.5574L228.786 77.2459L230.002 78.0902Z" fill="#CEC3BC" stroke="#1E3D5D"  stroke-linecap="round" stroke-linejoin="round"/>
<path d="M139.382 67.0603L140.541 68.9667L140.513 70.0288L139.353 71.1726L142.295 72.9974L143.455 76.5378L141.899 76.7285L141.305 77.7089L143.737 79.4519L137.77 82.5294L136.214 82.8834L134.602 82.6111L132.594 81.2766L130.642 77.3276L129.313 78.0085L126.569 76.5106L127.446 74.8221L129.313 74.5225L129.765 72.6433L129.03 71.3633L130.416 68.7216L133.103 67.4143L136.242 67.9318L138.137 66.1071L139.382 67.0603Z" fill="#CEC3BC" stroke="#1E3D5D"  stroke-linecap="round" stroke-linejoin="round"/>
<path d="M189.246 89.0113L187.322 89.3109L186.219 88.7935L185.003 87.2956L185.032 85.3074L183.25 84.2998L180.478 82.1755L176.886 84.9262L175.783 85.0896L174.849 84.3542L175.104 82.3389L169.589 82.8836L169.9 81.6853L168.146 81.5218L166.562 78.989L163.508 77.9814L161.556 78.6622L160.906 80.0784L160.623 79.2341L159.322 79.9422L155.504 78.989L155.192 81.8487L156.55 83.5917L155.136 85.1713L152.675 85.3074L152.279 82.8836L150.554 84.7083L147.358 85.4164L147.188 86.8053L144.869 85.4981L144.501 84.9534L144.812 83.6734L143.766 83.51L142.154 84.0002L139.495 86.0155L135.96 86.533L135.535 88.2215L134.149 88.1126L132.764 86.2607L132.226 86.8598L132.99 87.9764L131.406 88.0037L131.208 89.6922L130.699 90.2914L129.624 90.6182L127.588 89.9646L126.173 90.9722L123.769 89.0658L121.79 89.1203L120.206 86.996L119.499 86.6964L118.763 86.9688L118.254 88.1943L116.472 88.1671L115.878 89.2837L113.898 88.6573L112.88 90.5365L112.343 89.7739L110.646 90.6454L109.232 90.2097L107.761 91.3535L103.32 91.2173L101.765 90.6727L100.718 89.3654L100.379 88.1398L100.888 86.2879L102.585 86.8871L104.961 86.2879L105.074 85.6887L103.547 83.6734L104.48 81.6853L105.385 81.195L107.28 82.6385L108.525 81.1133L109.571 82.0393L110.816 81.5491L112.993 79.7516L114.068 76.6196L113.418 74.9856L111.551 74.6315L114.973 69.8382L115.03 68.6672L113.983 67.7684L115.907 66.3522L115.256 64.2007L118.622 65.5624L120.319 64.4186L120.347 63.0024L119.329 59.8704L120.432 57.6099L122.808 58.427L124.476 57.6644L126.202 52.2992L128.691 51.6728L130.473 51.9724L134.093 53.5247L133.584 54.3418L134.065 54.5597L136.356 53.089L135.648 54.7775L137.034 55.1861L137.374 56.8474L141.843 55.8125L143.455 57.4193L144.784 55.4856L147.273 57.3104L148.602 56.112L150.922 57.4193L152.053 57.4465L153.015 55.1588L158.36 53.7699L160.34 54.8048L159.492 56.6023L162.348 53.4975L163.96 53.8243L166.364 52.0813L167.609 54.7231L168.542 55.3222L172.361 53.7971L173.266 54.2328L175.245 52.5443L178.074 51.4277L179.431 51.346L180.45 52.5171L182.316 52.0268L183.504 54.2601L184.975 53.6882L186.474 54.6141L187.775 53.8243V51.0192L189.84 50.7468L191.452 51.4549L193.432 53.9333L191.593 54.6686L191.197 53.7699L190.49 53.9605L190.971 56.575L187.888 57.9367L187.832 60.4151L184.89 62.9479L185.852 65.399L186.333 65.7531L187.549 65.2356L188.765 66.5429L191.593 65.2356L191.848 66.1343L194.422 66.1616L195.496 67.0603L194.846 70.165L194.507 70.5191L193.064 70.0289L191.848 73.3243L191.339 77.0826L192.951 77.6273L189.642 80.9499L190.236 82.9925L189.246 85.253L190.66 86.07L189.246 89.0113ZM139.382 67.0603L138.137 66.1071L136.242 67.9318L133.103 67.4144L130.416 68.7216L129.03 71.3634L129.765 72.6434L129.313 74.5226L127.446 74.8222L126.569 76.5107L129.313 78.0086L130.642 77.3277L132.594 81.2767L134.602 82.6112L136.214 82.8836L137.77 82.5295L143.738 79.452L141.305 77.709L141.899 76.7286L143.455 76.5379L142.295 72.9974L139.354 71.1727L140.513 70.0289L140.542 68.9667L139.382 67.0603Z" fill="#CEC3BC" stroke="#1E3D5D"  stroke-linecap="round" stroke-linejoin="round"/>
<path d="M180.563 96.392L180.308 99.0609L183.872 102.329L185.767 107.667L184.381 108.675L188.482 108.893L189.557 111.507L190.575 111.67L192.3 110.881L191.31 111.807L191.819 113.577L193.29 113.359L192.922 114.339L193.714 115.647L196.203 114.694L197.787 116.246L199.145 119.187L198.013 121.366L198.89 122.782L202.539 123.735L202.454 125.778L203.472 127.14L207.488 124.525L210.6 125.56L211.25 126.976L209.695 128.964L210.741 130.272L206.753 133.158L207.319 133.73L208.252 132.45L209.949 132.341L210.684 134.084L210.628 135.773L208.591 137.788L203.416 141.029L202.652 140.049L201.86 140.131L200.22 141.193L200.389 142.5L198.296 142.364L196.939 143.29L199.739 144.815L198.947 145.904H199.852L199.739 147.021L202.341 149.962L201.662 151.95L199.569 152.577L201.436 154.265L201.068 155.436L199.088 155.246L197.108 156.607L195.553 156.907L188.68 157.37L187.124 156.852L186.7 153.775L185.625 157.996L186.248 158.623L185.484 160.475L183.08 162.898L182.373 163.116L181.722 162.463L181.213 164.151L179.799 164.124L181.581 165.785L182.542 169.38L183.306 169.762L186.445 169.162L187.096 170.633L189.246 171.695L188.963 174.146L190.547 175.671L186.87 177.088L185.003 178.803L186.248 179.975L180.732 183.787L180.421 184.741L181.043 186.838L180.11 187.11L179.771 188.962L179.544 189.724L178.187 189.779L175.019 190.868L173.35 191.113L171.455 190.868L170.776 190.024L170.805 185.939L170.635 185.285L169.9 184.141L169.758 183.597L169.9 182.916L170.55 182.18L171.54 179.348L171.738 178.422L171.597 176.979L170.465 174.963L166.986 173.602L166.025 172.049L166.336 170.306L169.164 163.525L169.221 162.354L169.108 161.428L169.193 160.447L170.578 157.533L171.003 157.424L171.795 158.241L171.964 156.308L172.36 154.047L172.473 152.114L171.795 151.269L169.504 151.732L168.655 151.378L168.344 149.744L166.364 150.616L158.558 158.269L158.134 159.14L157.936 160.202L158.36 161.428L158.445 162.19L157.879 165.676L157.37 167.419L156.691 168.672L155.899 169.19L152.845 169.653L142.634 174.555L140.457 174.909L139.919 174.773L141.107 171.995L138.957 167.773L138.392 162.054L137.204 161.673L136.864 159.875L136.808 155.463L137.77 153.584L134.97 148.873L137.628 146.885L137.034 145.305L137.939 141.765L136.893 141.002L135.337 140.675L133.98 142.173L133.414 142.2L130.755 140.675L129.539 139.096L132.452 137.026L134.913 136.862L135.846 135.228L137.176 135.283L137.77 133.213L141.842 133.758L143.313 131.279L145.35 131.089L146.707 132.75L151.657 131.96L151.204 127.821L152.958 124.988L151.459 123.272L152.618 122.918L153.721 120.603L150.554 118.779L151.233 118.098L150.525 117.308L151.515 117.145L152.505 114.557L151.6 113.359L152.166 112.324L149.536 112.978L150.837 107.504L150.582 105.624L151.826 104.671L153.128 104.508L155.786 105.407L157.427 105.053L156.578 101.594L157.398 100.259H158.105L160.142 101.648L160.481 100.423L162.376 99.9052L162.829 102.166L165.77 101.049L166.59 102.22L166.308 100.913L166.704 100.586L174.538 98.5707L174.623 97.8899L176.575 98.0533L178.243 95.8745L180.563 96.392Z" fill="#CEC3BC" stroke="#1E3D5D"  stroke-linecap="round" stroke-linejoin="round"/>
<path d="M256.786 150.915L256.136 150.588L255.711 149.799L255.457 148.736L254.976 148.246L253.873 149.118L252.289 149.281L251.667 150.289L251.384 151.787L250.79 153.394L249.715 154.483L246.972 155.763L245.756 156.825L245.501 157.533L245.36 159.331L245.19 160.066L244.737 160.692L243.663 161.591L243.21 162.272L243.295 164.587L243.125 165.458L242.588 166.003L241.117 166.63L240.665 167.201L240.58 168.727L241.089 169.326L241.372 169.952L240.58 171.45L239.986 171.995L238.883 172.24L238.374 172.567L237.808 173.329L237.073 175.127L234.527 179.403L234.216 180.437L235.093 180.846L236.705 182.017L237.384 183.025L235.46 182.834L235.489 183.46L235.093 184.441L235.8 185.067L234.951 185.639L234.612 186.674L234.725 187.981L235.178 189.37L235.941 190.596L236.677 190.95L237.469 191.086L238.402 191.631L238.883 192.339L240.608 195.634L240.721 196.152L240.863 197.922L241.315 198.276L243.182 198.902L244.144 198.766L244.568 199.42L244.653 200.264L244.03 201.108L243.889 202.416L243.55 203.151L243.804 203.941L244.313 204.322L245.784 204.485L246.321 204.921L246.717 206.474L246.321 207.4L244.992 208.734L244.059 211.24L243.493 212.329L242.645 213.092L243.889 213.745L243.21 215.434L241.513 217.177L239.788 217.967L238.911 217.776L237.327 216.823L236.535 216.714L235.743 217.122L234.782 218.321L233.877 218.702L232.293 218.43L230.737 217.694L229.068 217.313L227.258 218.212L226.381 219.356L225.986 220.581L224.882 220.717L224.26 220.554L221.969 219.519L220.583 220.118L218.745 221.534L216.85 222.596L215.266 222.188L214.814 221.235L214.898 220.254L215.125 219.247V218.103L214.842 217.095L211.306 210.94L209.949 209.742L207.658 208.952L206.838 208.462L206.385 208.38L205.423 209.823L204.886 209.987L203.67 209.769L203.33 209.333L203.132 208.326L203.359 206.8L204.292 206.038L203.783 204.404L202.369 202.715L200.841 201.245L199.258 201.299L195.948 202.171L194.251 201.708L192.922 200.754L191.847 199.719L188.708 195.362L187.859 194.545L185.229 193.837L183.786 193.02L181.043 190.432L179.714 189.697L179.544 189.724L179.77 188.962L180.11 187.11L181.043 186.838L180.421 184.74L180.732 183.787L186.247 179.974L185.003 178.803L186.869 177.088L190.546 175.671L188.962 174.146L189.245 171.695L187.096 170.633L186.445 169.162L183.306 169.761L182.542 169.38L181.58 165.785L179.799 164.124L181.213 164.151L181.722 162.463L182.372 163.116L183.079 162.898L185.483 160.475L186.247 158.623L185.625 157.996L186.7 153.775L187.124 156.852L188.68 157.37L195.552 156.907L197.108 156.607L199.088 155.245L201.068 155.436L201.435 154.265L199.569 152.577L201.662 151.95L202.34 149.962L199.738 147.021L199.852 145.904H198.946L199.738 144.815L196.938 143.29L198.296 142.364L200.389 142.5L200.219 141.192L201.86 140.13L202.652 140.049L203.415 141.029L208.591 137.788L210.628 135.773L210.684 134.084L209.949 132.341L208.252 132.45L207.318 133.73L206.753 133.158L210.741 130.271L209.694 128.964L211.25 126.976L210.599 125.56L213.032 123.327L211.561 120.821L212.013 120.031L213.003 119.977L216.171 122.401L219.113 120.521L219.791 122.7L221.008 122.945L220.781 123.926L221.206 124.28L222.422 124.471L224.911 123.327L228.87 126.922L231.303 126.758L230.963 128.093H234.669L233.396 130.843L233.452 132.069L234.64 134.003L236.62 134.466L234.64 138.524L239.052 137.87L240.269 138.251L240.75 139.286L241.23 138.224L245.869 137.598L246.35 136.508L243.804 136.154L245.416 132.314L244.059 131.197L244.709 129.155L253.59 131.034L253.732 131.987L256.079 133.158L255.655 143.426L255.994 144.651L257.578 144.951L256.56 146.067L256.928 147.511L256.786 150.915Z" fill="#CEC3BC" stroke="#1E3D5D"  stroke-linecap="round" stroke-linejoin="round"/>
<path d="M130.472 26.2629L130.189 26.4536L129.737 27.5702L131.292 32.4179L130.642 32.8264L132.424 35.2775L132.989 37.5108L132.65 39.9619L131.745 41.7321L128.832 42.6581H125.862L124.391 42.9304L123.09 43.802L122.157 44.8641L121.931 45.3543L122.327 47.8871L122.751 49.1399L122.977 50.4472L122.609 51.5638L123.316 52.3808L124.137 52.7349L125.579 51.591L126.201 52.2991L124.476 57.6643L122.807 58.4269L120.432 57.6099L119.328 59.8703L120.347 63.0023L120.318 64.4185L118.621 65.5623L115.256 64.2006L115.906 66.3521L113.983 67.7683L115.029 68.6671L114.973 69.8382L111.55 74.6314L113.417 74.9855L114.068 76.6196L112.993 79.7515L110.815 81.549L109.571 82.0392L108.524 81.1133L107.28 82.6384L105.385 81.195L104.48 81.6852L103.546 83.6733L105.074 85.6887L104.96 86.2878L102.585 86.887L100.888 86.2878L100.124 84.3542L95.9946 85.2529L95.0046 84.2997L92.0632 84.6265L90.847 81.1405L87.6792 82.4477L86.8873 80.9226L84.7943 82.0665L81.8245 87.6495L79.7598 86.2878L74.9233 86.2061L74.4425 82.6928L71.5293 83.5371L68.8424 82.4477L73.4243 79.1796L73.594 78.3626L71.897 76.1293L72.8586 74.9855L68.3333 71.1999L70.0586 69.4841L69.4646 67.3871L68.3333 66.9241L66.6363 67.9317L66.014 66.4066L67.004 65.4534L66.4383 64.1734L68.1636 64.4185L68.6727 63.9283L67.5696 62.8389L69.0404 62.8661L65.5049 61.1776L67.7676 60.1699L66.5231 58.5358L68.4464 55.7851L66.2403 52.1357L67.8242 51.0463L59.5371 45.3271L62.7614 43.3117L65.3918 38.464L63.6665 35.5227L61.6867 34.8963L63.4685 33.6979L62.1958 30.7566L64.6281 29.2859L64.5433 29.0681L66.2403 29.8306L68.5596 30.0758L72.0384 29.5583L72.2647 28.4962L72.0667 27.0527L72.2081 25.7727L73.0001 24.9557L74.0748 24.7106L75.2627 24.6288L78.1759 24.0025L79.9861 23.8935L81.8528 24.1931L90.7904 27.08L92.1763 27.9515L92.5723 29.4221L92.4591 30.6749L92.5723 31.846L93.647 33.0988L94.5804 33.5073L103.235 33.3984L104.876 32.8809L108.213 30.3481L117.292 25.9361L120.941 23.1854L123.826 19.3726L124.222 18.256L124.872 15.1785L126.258 16.4313L126.824 17.5479L127.361 19.6177L128.549 21.0339L129.878 22.1505L130.783 23.2671L131.151 24.6833L130.953 25.4731L130.472 26.2629Z" fill="#CEC3BC" stroke="#1E3D5D"  stroke-linecap="round" stroke-linejoin="round"/>
<path d="M64.5434 29.0681L64.6282 29.2859L62.1958 30.7566L63.4686 33.6979L61.6867 34.8962L63.6666 35.5226L65.3919 38.464L62.7615 43.3117L59.5372 45.327L67.8242 51.0463L66.2404 52.1357L68.4465 55.7851L66.5232 58.5357L67.7677 60.1698L65.505 61.1775L69.0404 62.866L67.5697 62.8388L68.6727 63.9282L68.1636 64.4184L66.4383 64.1733L67.004 65.4533L66.0141 66.4065L66.6363 67.9316L68.3333 66.924L69.4647 67.3869L70.0586 69.484L68.3333 71.1998L72.8587 74.9854L71.8971 76.1292L73.5941 78.3624L73.4244 79.1795L68.8424 82.4476L65.5616 84.817L62.2524 88.1668L61.9413 89.0111L60.8099 88.766L58.9998 87.486L59.1129 85.9608L57.529 83.8093L54.4179 84.2451L51.4198 82.5838L48.1389 84.2178L47.2338 84.5174L46.0176 82.4204L44.8015 81.2765L42.8782 80.7046L37.0518 82.4748L36.373 78.3624L35.2416 77.6543L30.9708 79.3156L30.9143 79.8059L32.4133 81.5216L29.6415 82.611L29.3304 83.6459L27.2374 84.0544L26.1909 83.1285L25.7101 83.2646L23.7585 84.4085L25.2575 89.0111L25.5404 90.0732L19.6857 87.486L18.3281 86.3966L17.9604 85.6885L16.9705 83.4553L16.5462 82.7199L13.831 80.1871L13.3502 79.3429L13.1239 78.6075L12.7562 77.9539L11.7946 77.4637L11.0875 77.382L9.7299 77.5726L8.06117 77.3275L7.52378 77.1096L7.12781 76.456L6.50558 75.0398L6.16617 74.6858L5.28939 74.25L5.03483 73.8687L5.11968 73.3513L5.68535 72.0985L5.77021 71.3904L4.32775 66.4882L4.752 65.4533L6.42073 63.8192L6.87326 63.1384L6.61871 60.9324L5.48737 59.2438L2.857 56.4387L2.12163 54.2599L1.38626 49.3305L0.283203 46.7432L1.75395 45.6811L4.55401 44.8096L14.4815 37.538L29.7263 28.8502L44.4621 19.4815L60.9231 14.3342L61.5453 18.6917L61.2625 21.4697L61.2059 24.1114L62.2241 26.9438L64.006 28.823L64.5434 29.0681Z" fill="#CEC3BC" stroke="#1E3D5D"  stroke-linecap="round" stroke-linejoin="round"/>
<path d="M199.399 27.6791L198.522 28.3872L197.702 32.6903L200.7 35.3865L200.927 39.9346L199.088 41.5142L196.712 40.8334L195.072 43.1755L191.395 43.3662L188.425 47.0156L182.571 48.1322V49.6846L180.449 52.517L179.431 51.3459L178.073 51.4276L175.245 52.5442L173.265 54.2327L172.36 53.797L168.542 55.3221L167.609 54.723L166.364 52.0812L163.96 53.8242L162.348 53.4974L159.491 56.6021L160.34 54.8047L158.36 53.7698L153.014 55.1587L152.053 57.4464L150.921 57.4192L148.602 56.1119L147.273 57.3102L144.784 55.4855L143.454 57.4192L141.842 55.8123L137.373 56.8472L137.034 55.1859L135.648 54.7774L136.355 53.0889L134.064 54.5596L133.583 54.3417L134.093 53.5246L130.472 51.9723L128.69 51.6727L126.201 52.2991L125.579 51.591L124.137 52.7348L123.317 52.3808L122.609 51.5638L122.977 50.4471L122.751 49.1399L122.327 47.8871L121.931 45.3543L122.157 44.8641L123.09 43.8019L124.391 42.9304L125.862 42.6581H128.832L131.745 41.7321L132.65 39.9619L132.99 37.5108L132.424 35.2775L130.642 32.8264L131.293 32.4179L129.737 27.5702L130.189 26.4536L130.472 26.2629L131.179 26.0723L131.773 25.4459L132.82 23.2671L130.359 22.2322L129.793 21.7965L129.482 20.7888L129.539 18.3377L129.313 17.1666L128.775 16.2679L127.701 14.9878L129.85 15.0695L132.48 16.4585L133.895 16.9215L137.317 17.1394L138.703 16.4313L139.07 14.4704L138.618 13.3538L136.977 11.4746L136.412 10.4397L136.468 9.29582L136.949 8.42432L137.091 7.60728L136.214 6.68131L140.032 4.52979L143.964 3.11359L146.141 2.75954L147.075 2.92295L147.64 3.87616L147.556 5.78257L146.933 7.17153L146.792 8.28815L148.206 9.26859L149.168 9.35029L151.261 8.96901L153.608 9.54093L154.74 9.45923L155.729 9.10518L156.493 8.56049L162.15 1.83357L164.582 0.635254L165.629 0.744192L166.958 1.23441L168.203 1.99698L168.938 2.97742L169.108 4.66596L168.655 6.30003L168.316 8.0158L168.853 9.97669L165.657 8.53326L164.837 8.66943L164.413 10.0039L165.968 10.6575L171.087 10.8482L172.445 11.175L175.273 12.455L176.857 12.0193L178.696 10.2763L180.393 8.07027L181.552 6.24556L182.061 4.8566L182.288 3.79446L182.74 3.11359L183.872 2.84125L184.07 3.11359L186.276 4.52979L187.718 7.17153L187.435 9.05071L186.615 10.8482L186.361 13.2993L186.841 14.4159L189.359 17.1121L189.755 18.0926L190.49 20.5709L190.858 21.3062L192.13 21.9871L194.959 21.742L196.316 21.8782L197.589 23.4578L197.617 27.4885L198.918 27.788L199.399 27.6791Z" fill="#CEC3BC" stroke="#1E3D5D"  stroke-linecap="round" stroke-linejoin="round"/>
<path d="M235.545 83.5372L236.818 84.8717L238.713 84.3815L241.796 88.3577L244.426 87.9764L246.18 88.8752L246.83 88.6028L248.527 86.07L247.142 84.3815L247.962 84.6266L253.251 84.79L254.75 84.5177L254.693 85.3347L255.909 85.9611L255.938 87.0232L255.683 88.1943L255.966 89.1475L256.928 89.2565L259.841 88.4667L261.057 88.5756L262.443 89.9373L266.912 96.5281L265.95 97.1272L266.799 98.7341L268.298 99.4966L273.36 99.6056L273.53 100.286L273.021 101.267L272.172 102.247V102.656L270.532 103.582L268.241 105.434L266.883 107.476L268.1 108.974L267.534 109.818L267.619 110.336L268.213 110.554L269.061 110.636L268.496 111.589L269.09 112.106L269.712 113.386L270.306 113.822L271.013 113.876L273.502 113.141L273.841 112.923L275.284 113.659L278.451 114.339L279.809 114.421L278.989 115.211L278.791 116.082L279.017 117.09L279.413 118.207L280.035 119.214L280.573 119.296L280.827 119.677L280.799 121.529L280.262 124.144L279.752 125.614L279.866 126.922L282.411 131.198L282.553 132.75L281.647 133.676L279.696 134.03L278.706 133.867L277.886 133.54L277.065 133.485L276.076 134.03L275.34 134.874L274.859 135.936L274.69 137.053L275.029 138.061L273.671 139.232L270.532 140.076L269.005 140.784L268.298 141.846L266.629 142.99L265.865 143.943L266.855 144.978L267.251 146.231L267.223 147.484L266.77 148.519L266.233 148.873L264.762 148.982L264.14 149.363L263.603 151.487L264.338 152.086L264.592 152.74L264.394 153.503L263.716 154.238L262.641 153.775L262.471 152.903L262.556 151.869L262.217 150.861L261.283 149.962L260.718 150.044L260.237 150.534L259.615 150.915L257.946 151.16L256.786 150.915L256.928 147.511L256.56 146.068L257.578 144.951L255.994 144.651L255.655 143.426L256.079 133.158L253.732 131.987L253.59 131.034L244.709 129.155L244.059 131.198L245.416 132.314L243.804 136.154L246.35 136.508L245.869 137.598L241.23 138.224L240.749 139.286L240.269 138.251L239.052 137.87L234.64 138.524L236.62 134.466L234.64 134.003L233.452 132.069L233.396 130.844L234.669 128.093H230.963L231.303 126.758L228.87 126.922L224.911 123.327L222.422 124.471L221.206 124.28L220.781 123.926L221.008 122.946L219.791 122.7L219.113 120.522L216.171 122.401L213.003 119.977L212.013 120.031L211.561 120.821L213.032 123.327L210.599 125.56L207.488 124.525L203.472 127.14L202.454 125.778L202.538 123.735L198.89 122.782L198.013 121.366L199.144 119.187L197.787 116.246L196.203 114.693L193.714 115.647L192.922 114.339L193.29 113.359L191.819 113.577L191.31 111.807L192.3 110.881L190.575 111.67L189.556 111.507L188.482 108.893L184.38 108.675L185.766 107.667L183.871 102.329L180.308 99.0609L180.562 96.3919L181.976 93.8591L181.891 90.5637L183.051 89.7467L181.269 87.2684L183.023 86.3696L183.249 84.2998L185.031 85.3075L185.003 87.2956L186.219 88.7935L187.322 89.3109L189.245 89.0114L194.138 90.4003L195.072 89.2837L194.251 87.459L198.607 88.0037L199.144 86.9415L199.682 88.2216L202.029 86.8054L204.377 88.0309L204.716 86.7781L206.187 85.5253L209.553 84.4087L210.543 84.8445L211.448 87.0232L213.428 87.7586L215.068 87.5952L215.634 85.6343L217.076 87.1594L218.236 86.8871L220.216 85.1985L220.074 83.4011L226.438 81.5763L230.002 78.0903L230.454 78.3627L232.01 79.098L233.17 79.4248L233.028 80.7593L232.293 83.3194L233.622 84.0547L234.414 84.1909L235.178 84.0547L235.545 83.5372Z" fill="#CEC3BC" stroke="#1E3D5D"  stroke-linecap="round" stroke-linejoin="round"/>
<path d="M183.249 84.2996L183.023 86.3694L181.27 87.2681L183.051 89.7465L181.892 90.5635L181.977 93.8589L180.562 96.3917L178.243 95.8742L176.574 98.053L174.623 97.8896L174.538 98.5704L166.704 100.586L166.308 100.913L166.59 102.22L165.77 101.049L162.829 102.165L162.376 99.9049L160.481 100.422L160.142 101.648L158.105 100.259H157.398L156.578 101.593L157.427 105.052L155.786 105.406L153.127 104.508L151.826 104.671L150.582 105.624L150.836 107.503L146.424 109.301L145.349 108.838L145.434 107.803L143.03 109.028L143.228 106.278L142.889 105.706L139.58 105.733L138.816 104.971L134.658 105.406L132.82 107.367L133.018 104.535L130.868 104.753L129.03 102.002L126.654 101.512L127.05 99.1968L123.147 98.2436L123.515 95.9014L122.1 94.104L121.28 94.4308L118.989 97.481L117.264 97.7262L115.991 97.2087L115.284 95.2478L115.199 91.1354L115.482 89.692L115.878 89.2835L116.472 88.1669L118.254 88.1941L118.763 86.9686L119.498 86.6962L120.205 86.9958L121.789 89.1201L123.769 89.0656L126.173 90.972L127.587 89.9643L129.624 90.618L130.699 90.2912L131.208 89.692L131.406 88.0035L132.99 87.9762L132.226 86.8596L132.763 86.2605L134.149 88.1124L135.535 88.2213L135.959 86.5328L139.495 86.0154L142.153 84L143.766 83.5098L144.812 83.6732L144.501 84.9532L144.869 85.4979L147.188 86.8052L147.358 85.4162L150.554 84.7081L152.279 82.8834L152.675 85.3073L155.136 85.1711L156.55 83.5915L155.192 81.8485L155.503 78.9889L159.322 79.9421L160.623 79.234L160.905 80.0783L161.556 78.6621L163.507 77.9812L166.562 78.9889L168.146 81.5217L169.9 81.6851L169.588 82.8834L175.104 82.3387L174.849 84.3541L175.783 85.0894L176.886 84.926L180.478 82.1753L183.249 84.2996Z" fill="#CEC3BC" stroke="#1E3D5D"  stroke-linecap="round" stroke-linejoin="round"/>
</svg>
