<svg width="649" height="334" viewBox="0 0 649 334" fill="none" xmlns="http://www.w3.org/2000/svg">
<path d="M404 330.563L404.159 221L503.729 221.248L502.933 330.563H404Z" fill="#D9D9D9"/>
<path d="M11.1719 333.613L11.3311 51.5413L110.901 52.1893L110.105 333.613H11.1719Z" fill="#D9D9D9"/>
<path d="M174.572 120.567L173.648 333.02L262.806 333.544L260.928 120.043L174.572 120.567Z" fill="#D9D9D9"/>
<path d="M312.59 210.123L311.953 333.268L371.864 333.571L370.606 209.819L312.59 210.123Z" fill="#D9D9D9"/>
<path d="M582.832 211.791L582.227 333.378L639.542 333.682L638.348 211.502L582.832 211.791Z" fill="#D9D9D9"/>
<path d="M509.732 153.441L509 332.747L579.053 333.202L577.588 153L509.732 153.441Z" fill="#D9D9D9"/>
<path d="M268.074 333.571L268.663 149.908H308.466L308.1 333.571H268.074Z" fill="#D9D9D9"/>
<path d="M117.574 16.8082L119.851 333.558L169.461 333.061L170.257 16.9047L161.564 16.822L161.516 9.45891L156.82 9.26587L156.835 0.179252L132.779 0L132.715 9.40376L126.522 9.50028L126.474 16.8358L117.574 16.8082Z" fill="#D9D9D9"/>
<path d="M361.039 150.488L363.332 333.571L412.926 333.282L413.722 150.543L405.029 150.502L404.997 146.241L400.3 146.131L400.316 140.877L376.244 140.767L376.196 146.213L369.987 146.255L369.955 150.502L361.039 150.488Z" fill="#D9D9D9"/>
<path d="M7 333.613L7.14329 51.5413L99.342 52.1893L98.5937 333.613H7Z" fill="#C3C3C3"/>
<path d="M396.844 333.613L397.003 224.049L496.573 224.297L495.777 333.613H396.844Z" fill="#C3C3C3"/>
<path d="M163.724 120.636L162.801 333.075L251.959 333.613L250.08 120.098L163.724 120.636Z" fill="#C3C3C3"/>
<path d="M301.746 210.164L301.109 333.296L361.02 333.613L359.763 209.861L301.746 210.164Z" fill="#C3C3C3"/>
<path d="M574.855 211.791L574.25 333.378L631.566 333.682L630.356 211.502L574.855 211.791Z" fill="#C3C3C3"/>
<path d="M498.774 153.441L498 332.546L572 333L570.453 153L498.774 153.441Z" fill="#C3C3C3"/>
<path d="M257.23 333.613L257.82 149.95H297.622L297.256 333.613H257.23Z" fill="#C3C3C3"/>
<path d="M106.73 16.8496L109.007 333.613L158.617 333.103L159.413 16.9599L150.72 16.8771L150.673 9.51408L145.976 9.32104L145.992 0.234422L121.935 0.0551758L121.871 9.45893L115.678 9.54166L115.63 16.8771L106.73 16.8496Z" fill="#C3C3C3"/>
<path d="M350.191 150.529L352.484 333.613L402.078 333.323L402.874 150.584L394.181 150.543L394.149 146.282L389.453 146.172L389.469 140.919L365.396 140.808L365.348 146.241L359.139 146.296L359.107 150.543L350.191 150.529Z" fill="#C3C3C3"/>
<path d="M122.712 23.9094H112.363V34.044H122.712V23.9094Z" fill="#D9D9D9"/>
<path d="M122.712 40.3865H112.363V50.521H122.712V40.3865Z" fill="#D9D9D9"/>
<path d="M138.235 23.9094H127.887V34.044H138.235V23.9094Z" fill="#D9D9D9"/>
<path d="M138.235 40.3865H127.887V50.521H138.235V40.3865Z" fill="#D9D9D9"/>
<path d="M153.763 23.9094H143.414V34.044H153.763V23.9094Z" fill="#D9D9D9"/>
<path d="M153.763 40.3865H143.414V50.521H153.763V40.3865Z" fill="#D9D9D9"/>
<path d="M153.763 40.3865H143.414V50.521H153.763V40.3865Z" fill="#D9D9D9"/>
<path d="M153.763 56.8638H143.414V66.9983H153.763V56.8638Z" fill="#D9D9D9"/>
<path d="M138.235 56.8638H127.887V66.9983H138.235V56.8638Z" fill="#D9D9D9"/>
<path d="M122.712 56.8638H112.363V66.9983H122.712V56.8638Z" fill="#D9D9D9"/>
<path d="M122.712 75.9609H112.363V86.0955H122.712V75.9609Z" fill="#D9D9D9"/>
<path d="M138.235 75.9609H127.887V86.0955H138.235V75.9609Z" fill="#D9D9D9"/>
<path d="M153.763 75.9609H143.414V86.0955H153.763V75.9609Z" fill="#D9D9D9"/>
<path d="M122.712 95.0579H112.363V105.192H122.712V95.0579Z" fill="#D9D9D9"/>
<path d="M122.712 111.535H112.363V121.669H122.712V111.535Z" fill="#D9D9D9"/>
<path d="M138.235 95.0579H127.887V105.192H138.235V95.0579Z" fill="#D9D9D9"/>
<path d="M138.235 111.535H127.887V121.669H138.235V111.535Z" fill="#D9D9D9"/>
<path d="M273.157 162.663H262.809V172.797H273.157V162.663Z" fill="#D9D9D9"/>
<path d="M273.157 179.14H262.809V189.275H273.157V179.14Z" fill="#D9D9D9"/>
<path d="M288.677 162.663H278.328V172.797H288.677V162.663Z" fill="#D9D9D9"/>
<path d="M288.677 179.14H278.328V189.275H288.677V179.14Z" fill="#D9D9D9"/>
<path d="M288.677 195.618H278.328V205.752H288.677V195.618Z" fill="#D9D9D9"/>
<path d="M273.157 195.618H262.809V205.752H273.157V195.618Z" fill="#D9D9D9"/>
<path d="M273.157 214.714H262.809V224.849H273.157V214.714Z" fill="#D9D9D9"/>
<path d="M288.677 214.714H278.328V224.849H288.677V214.714Z" fill="#D9D9D9"/>
<path d="M273.157 233.812H262.809V243.946H273.157V233.812Z" fill="#D9D9D9"/>
<path d="M273.157 250.289H262.809V260.423H273.157V250.289Z" fill="#D9D9D9"/>
<path d="M288.677 233.812H278.328V243.946H288.677V233.812Z" fill="#D9D9D9"/>
<path d="M288.677 250.289H278.328V260.423H288.677V250.289Z" fill="#D9D9D9"/>
<path d="M153.763 95.0579H143.414V105.192H153.763V95.0579Z" fill="#D9D9D9"/>
<path d="M153.763 111.535H143.414V121.669H153.763V111.535Z" fill="#D9D9D9"/>
<path d="M153.763 111.535H143.414V121.669H153.763V111.535Z" fill="#D9D9D9"/>
<path d="M153.763 128.012H143.414V138.147H153.763V128.012Z" fill="#D9D9D9"/>
<path d="M138.235 128.012H127.887V138.147H138.235V128.012Z" fill="#D9D9D9"/>
<path d="M122.712 128.012H112.363V138.147H122.712V128.012Z" fill="#D9D9D9"/>
<path d="M364.489 164.497H354.141V174.631H364.489V164.497Z" fill="#D9D9D9"/>
<path d="M364.489 180.974H354.141V191.109H364.489V180.974Z" fill="#D9D9D9"/>
<path d="M380.013 164.497H369.664V174.631H380.013V164.497Z" fill="#D9D9D9"/>
<path d="M380.013 180.974H369.664V191.109H380.013V180.974Z" fill="#D9D9D9"/>
<path d="M395.536 164.497H385.188V174.631H395.536V164.497Z" fill="#D9D9D9"/>
<path d="M395.536 180.974H385.188V191.109H395.536V180.974Z" fill="#D9D9D9"/>
<path d="M395.536 180.974H385.188V191.109H395.536V180.974Z" fill="#D9D9D9"/>
<path d="M395.536 197.465H385.188V207.6H395.536V197.465Z" fill="#D9D9D9"/>
<path d="M380.013 197.465H369.664V207.6H380.013V197.465Z" fill="#D9D9D9"/>
<path d="M364.489 197.465H354.141V207.6H364.489V197.465Z" fill="#D9D9D9"/>
<path d="M364.489 216.562H354.141V226.697H364.489V216.562Z" fill="#D9D9D9"/>
<path d="M380.013 216.562H369.664V226.697H380.013V216.562Z" fill="#D9D9D9"/>
<path d="M395.536 216.562H385.188V226.697H395.536V216.562Z" fill="#D9D9D9"/>
<path d="M314.692 216.562H304.344V230.351H314.692V216.562Z" fill="#D9D9D9"/>
<path d="M330.216 216.562H319.867V230.351H330.216V216.562Z" fill="#D9D9D9"/>
<path d="M345.735 216.562H335.387V230.351H345.735V216.562Z" fill="#D9D9D9"/>
<path d="M364.489 233.867H354.141V244.001H364.489V233.867Z" fill="#D9D9D9"/>
<path d="M380.013 233.867H369.664V244.001H380.013V233.867Z" fill="#D9D9D9"/>
<path d="M395.536 233.867H385.188V244.001H395.536V233.867Z" fill="#D9D9D9"/>
<path d="M314.692 240.113H304.344V253.901H314.692V240.113Z" fill="#D9D9D9"/>
<path d="M330.216 240.113H319.867V253.901H330.216V240.113Z" fill="#D9D9D9"/>
<path d="M345.735 240.113H335.387V253.901H345.735V240.113Z" fill="#D9D9D9"/>
<path d="M364.489 251.406H354.141V261.54H364.489V251.406Z" fill="#D9D9D9"/>
<path d="M380.013 251.406H369.664V261.54H380.013V251.406Z" fill="#D9D9D9"/>
<path d="M395.536 251.406H385.188V261.54H395.536V251.406Z" fill="#D9D9D9"/>
<path d="M314.692 263.995H304.344V277.783H314.692V263.995Z" fill="#D9D9D9"/>
<path d="M330.216 263.995H319.867V277.783H330.216V263.995Z" fill="#D9D9D9"/>
<path d="M345.735 263.995H335.387V277.783H345.735V263.995Z" fill="#D9D9D9"/>
<path d="M364.489 268.352H354.141V278.486H364.489V268.352Z" fill="#D9D9D9"/>
<path d="M380.013 268.352H369.664V278.486H380.013V268.352Z" fill="#D9D9D9"/>
<path d="M395.536 268.352H385.188V278.486H395.536V268.352Z" fill="#D9D9D9"/>
<path d="M314.692 287.063H304.344V300.851H314.692V287.063Z" fill="#D9D9D9"/>
<path d="M330.216 287.063H319.867V300.851H330.216V287.063Z" fill="#D9D9D9"/>
<path d="M345.735 287.063H335.387V300.851H345.735V287.063Z" fill="#D9D9D9"/>
<path d="M462.138 233.825H451.789V249.02H462.138V233.825Z" fill="#D9D9D9"/>
<path d="M477.661 233.825H467.312V249.02H477.661V233.825Z" fill="#D9D9D9"/>
<path d="M493.181 233.825H482.832V249.02H493.181V233.825Z" fill="#D9D9D9"/>
<path d="M412.333 233.825H401.984V249.02H412.333V233.825Z" fill="#D9D9D9"/>
<path d="M427.856 233.825H417.508V249.02H427.856V233.825Z" fill="#D9D9D9"/>
<path d="M443.376 233.825H433.027V249.02H443.376V233.825Z" fill="#D9D9D9"/>
<path d="M462.138 261.196H451.789V276.39H462.138V261.196Z" fill="#D9D9D9"/>
<path d="M477.661 261.196H467.312V276.39H477.661V261.196Z" fill="#D9D9D9"/>
<path d="M493.181 261.196H482.832V276.39H493.181V261.196Z" fill="#D9D9D9"/>
<path d="M412.333 261.196H401.984V276.39H412.333V261.196Z" fill="#D9D9D9"/>
<path d="M427.856 261.196H417.508V276.39H427.856V261.196Z" fill="#D9D9D9"/>
<path d="M443.376 261.196H433.027V276.39H443.376V261.196Z" fill="#D9D9D9"/>
<path d="M462.138 285.656H451.789V300.851H462.138V285.656Z" fill="#D9D9D9"/>
<path d="M477.661 285.656H467.312V300.851H477.661V285.656Z" fill="#D9D9D9"/>
<path d="M493.181 285.656H482.832V300.851H493.181V285.656Z" fill="#D9D9D9"/>
<path d="M412.333 285.656H401.984V300.851H412.333V285.656Z" fill="#D9D9D9"/>
<path d="M427.856 285.656H417.508V300.851H427.856V285.656Z" fill="#D9D9D9"/>
<path d="M443.376 285.656H433.027V300.851H443.376V285.656Z" fill="#D9D9D9"/>
<path d="M188.99 132.163H170.617V142.297H188.99V132.163Z" fill="#D9D9D9"/>
<path d="M188.99 148.654H170.617V158.788H188.99V148.654Z" fill="#D9D9D9"/>
<path d="M216.549 132.163H198.176V142.297H216.549V132.163Z" fill="#D9D9D9"/>
<path d="M216.549 148.654H198.176V158.788H216.549V148.654Z" fill="#D9D9D9"/>
<path d="M244.127 132.163H225.754V142.297H244.127V132.163Z" fill="#D9D9D9"/>
<path d="M244.127 148.654H225.754V158.788H244.127V148.654Z" fill="#D9D9D9"/>
<path d="M244.127 148.654H225.754V158.788H244.127V148.654Z" fill="#D9D9D9"/>
<path d="M244.127 165.131H225.754V175.266H244.127V165.131Z" fill="#D9D9D9"/>
<path d="M216.549 165.131H198.176V175.266H216.549V165.131Z" fill="#D9D9D9"/>
<path d="M188.99 165.131H170.617V175.266H188.99V165.131Z" fill="#D9D9D9"/>
<path d="M188.99 184.228H170.617V194.363H188.99V184.228Z" fill="#D9D9D9"/>
<path d="M216.549 184.228H198.176V194.363H216.549V184.228Z" fill="#D9D9D9"/>
<path d="M244.127 184.228H225.754V194.363H244.127V184.228Z" fill="#D9D9D9"/>
<path d="M188.99 201.257H170.617V211.391H188.99V201.257Z" fill="#D9D9D9"/>
<path d="M216.549 201.257H198.176V211.391H216.549V201.257Z" fill="#D9D9D9"/>
<path d="M244.127 201.257H225.754V211.391H244.127V201.257Z" fill="#D9D9D9"/>
<path d="M188.99 221.623H170.617V231.757H188.99V221.623Z" fill="#D9D9D9"/>
<path d="M216.549 221.623H198.176V231.757H216.549V221.623Z" fill="#D9D9D9"/>
<path d="M244.127 221.623H225.754V231.757H244.127V221.623Z" fill="#D9D9D9"/>
<path d="M37.1737 69.8247H18.8008V87.7498H37.1737V69.8247Z" fill="#D9D9D9"/>
<path d="M37.1737 98.9739H18.8008V116.899H37.1737V98.9739Z" fill="#D9D9D9"/>
<path d="M64.7244 69.8247H46.3516V87.7498H64.7244V69.8247Z" fill="#D9D9D9"/>
<path d="M64.7244 98.9739H46.3516V116.899H64.7244V98.9739Z" fill="#D9D9D9"/>
<path d="M92.3026 69.8247H73.9297V87.7498H92.3026V69.8247Z" fill="#D9D9D9"/>
<path d="M92.3026 98.9739H73.9297V116.899H92.3026V98.9739Z" fill="#D9D9D9"/>
<path d="M92.3026 98.9739H73.9297V116.899H92.3026V98.9739Z" fill="#D9D9D9"/>
<path d="M92.3026 128.123H73.9297V146.048H92.3026V128.123Z" fill="#D9D9D9"/>
<path d="M64.7244 128.123H46.3516V146.048H64.7244V128.123Z" fill="#D9D9D9"/>
<path d="M37.1737 128.123H18.8008V146.048H37.1737V128.123Z" fill="#D9D9D9"/>
<path d="M37.1737 161.905H18.8008V179.83H37.1737V161.905Z" fill="#D9D9D9"/>
<path d="M64.7244 161.905H46.3516V179.83H64.7244V161.905Z" fill="#D9D9D9"/>
<path d="M92.3026 161.905H73.9297V179.83H92.3026V161.905Z" fill="#D9D9D9"/>
<path d="M37.1737 192.046H18.8008V209.971H37.1737V192.046Z" fill="#D9D9D9"/>
<path d="M64.7244 192.046H46.3516V209.971H64.7244V192.046Z" fill="#D9D9D9"/>
<path d="M92.3026 192.046H73.9297V209.971H92.3026V192.046Z" fill="#D9D9D9"/>
<path d="M37.1737 228.062H18.8008V245.987H37.1737V228.062Z" fill="#D9D9D9"/>
<path d="M64.7244 228.062H46.3516V245.987H64.7244V228.062Z" fill="#D9D9D9"/>
<path d="M92.3026 228.062H73.9297V245.987H92.3026V228.062Z" fill="#D9D9D9"/>
<path d="M188.99 241.12H170.617V251.254H188.99V241.12Z" fill="#D9D9D9"/>
<path d="M216.549 241.12H198.176V251.254H216.549V241.12Z" fill="#D9D9D9"/>
<path d="M244.127 241.12H225.754V251.254H244.127V241.12Z" fill="#D9D9D9"/>
<path d="M188.99 258.907H170.617V269.041H188.99V258.907Z" fill="#D9D9D9"/>
<path d="M216.549 258.907H198.176V269.041H216.549V258.907Z" fill="#D9D9D9"/>
<path d="M244.127 258.907H225.754V269.041H244.127V258.907Z" fill="#D9D9D9"/>
<path d="M592.72 235.011H582.371V245.146H592.72V235.011Z" fill="#D9D9D9"/>
<path d="M592.72 251.489H582.371V261.623H592.72V251.489Z" fill="#D9D9D9"/>
<path d="M608.243 235.011H597.895V245.146H608.243V235.011Z" fill="#D9D9D9"/>
<path d="M608.243 251.489H597.895V261.623H608.243V251.489Z" fill="#D9D9D9"/>
<path d="M623.767 235.011H613.418V245.146H623.767V235.011Z" fill="#D9D9D9"/>
<path d="M592.72 220.12H582.371V230.254H592.72V220.12Z" fill="#D9D9D9"/>
<path d="M608.243 220.12H597.895V230.254H608.243V220.12Z" fill="#D9D9D9"/>
<path d="M623.767 220.12H613.418V230.254H623.767V220.12Z" fill="#D9D9D9"/>
<path d="M623.767 251.489H613.418V261.623H623.767V251.489Z" fill="#D9D9D9"/>
<path d="M623.767 251.489H613.418V261.623H623.767V251.489Z" fill="#D9D9D9"/>
<path d="M623.767 267.979H613.418V278.114H623.767V267.979Z" fill="#D9D9D9"/>
<path d="M608.243 267.979H597.895V278.114H608.243V267.979Z" fill="#D9D9D9"/>
<path d="M592.72 267.979H582.371V278.114H592.72V267.979Z" fill="#D9D9D9"/>
<path d="M522.826 164.497H509.484V175.969H522.826V164.497Z" fill="#D9D9D9"/>
<path d="M522.826 183.167H509.484V194.639H522.826V183.167Z" fill="#D9D9D9"/>
<path d="M542.826 164.497H529.484V175.969H542.826V164.497Z" fill="#D9D9D9"/>
<path d="M542.826 183.167H529.484V194.639H542.826V183.167Z" fill="#D9D9D9"/>
<path d="M562.818 164.497H549.477V175.969H562.818V164.497Z" fill="#D9D9D9"/>
<path d="M562.818 183.167H549.477V194.639H562.818V183.167Z" fill="#D9D9D9"/>
<path d="M562.818 183.167H549.477V194.639H562.818V183.167Z" fill="#D9D9D9"/>
<path d="M562.818 201.822H549.477V213.294H562.818V201.822Z" fill="#D9D9D9"/>
<path d="M542.826 201.822H529.484V213.294H542.826V201.822Z" fill="#D9D9D9"/>
<path d="M522.826 201.822H509.484V213.294H522.826V201.822Z" fill="#D9D9D9"/>
<path d="M522.826 223.457H509.484V234.929H522.826V223.457Z" fill="#D9D9D9"/>
<path d="M542.826 223.457H529.484V234.929H542.826V223.457Z" fill="#D9D9D9"/>
<path d="M562.818 223.457H549.477V234.929H562.818V223.457Z" fill="#D9D9D9"/>
<path d="M522.826 245.091H509.484V256.563H522.826V245.091Z" fill="#D9D9D9"/>
<path d="M522.826 263.746H509.484V275.219H522.826V263.746Z" fill="#D9D9D9"/>
<path d="M542.826 245.091H529.484V256.563H542.826V245.091Z" fill="#D9D9D9"/>
<path d="M542.826 263.746H529.484V275.219H542.826V263.746Z" fill="#D9D9D9"/>
<path d="M562.818 245.091H549.477V256.563H562.818V245.091Z" fill="#D9D9D9"/>
<path d="M562.818 263.746H549.477V275.219H562.818V263.746Z" fill="#D9D9D9"/>
<path d="M562.818 263.746H549.477V275.219H562.818V263.746Z" fill="#D9D9D9"/>
<path d="M562.818 282.416H549.477V293.888H562.818V282.416Z" fill="#D9D9D9"/>
<path d="M542.826 282.416H529.484V293.888H542.826V282.416Z" fill="#D9D9D9"/>
<path d="M522.826 282.416H509.484V293.888H522.826V282.416Z" fill="#D9D9D9"/>
<path d="M122.712 147.109H112.363V157.244H122.712V147.109Z" fill="#D9D9D9"/>
<path d="M138.235 147.109H127.887V157.244H138.235V147.109Z" fill="#D9D9D9"/>
<path d="M153.763 147.109H143.414V157.244H153.763V147.109Z" fill="#D9D9D9"/>
<path d="M122.712 163.794H112.363V173.928H122.712V163.794Z" fill="#D9D9D9"/>
<path d="M122.712 180.271H112.363V190.406H122.712V180.271Z" fill="#D9D9D9"/>
<path d="M138.235 163.794H127.887V173.928H138.235V163.794Z" fill="#D9D9D9"/>
<path d="M138.235 180.271H127.887V190.406H138.235V180.271Z" fill="#D9D9D9"/>
<path d="M153.763 163.794H143.414V173.928H153.763V163.794Z" fill="#D9D9D9"/>
<path d="M153.763 180.271H143.414V190.406H153.763V180.271Z" fill="#D9D9D9"/>
<path d="M153.763 180.271H143.414V190.406H153.763V180.271Z" fill="#D9D9D9"/>
<path d="M153.763 196.762H143.414V206.896H153.763V196.762Z" fill="#D9D9D9"/>
<path d="M138.235 196.762H127.887V206.896H138.235V196.762Z" fill="#D9D9D9"/>
<path d="M122.712 196.762H112.363V206.896H122.712V196.762Z" fill="#D9D9D9"/>
<path d="M122.712 215.859H112.363V225.994H122.712V215.859Z" fill="#D9D9D9"/>
<path d="M138.235 215.859H127.887V225.994H138.235V215.859Z" fill="#D9D9D9"/>
<path d="M153.763 215.859H143.414V225.994H153.763V215.859Z" fill="#D9D9D9"/>
<rect y="312" width="649" height="22" fill="#24242C"/>
</svg>
