<svg width="408" height="209" viewBox="0 0 408 209" fill="none" xmlns="http://www.w3.org/2000/svg">
<path d="M6.22 53.2C5.14 53.2 4.09333 53.0467 3.08 52.74C2.08 52.4333 1.28667 52.0267 0.7 51.52L1.6 49.5C2.17333 49.9533 2.87333 50.3267 3.7 50.62C4.54 50.9 5.38 51.04 6.22 51.04C7.26 51.04 8.03333 50.8733 8.54 50.54C9.06 50.2067 9.32 49.7667 9.32 49.22C9.32 48.82 9.17333 48.4933 8.88 48.24C8.6 47.9733 8.24 47.7667 7.8 47.62C7.36 47.4733 6.76 47.3067 6 47.12C4.93333 46.8667 4.06667 46.6133 3.4 46.36C2.74667 46.1067 2.18 45.7133 1.7 45.18C1.23333 44.6333 1 43.9 1 42.98C1 42.2067 1.20667 41.5067 1.62 40.88C2.04667 40.24 2.68 39.7333 3.52 39.36C4.37333 38.9867 5.41333 38.8 6.64 38.8C7.49333 38.8 8.33333 38.9067 9.16 39.12C9.98667 39.3333 10.7 39.64 11.3 40.04L10.48 42.06C9.86667 41.7 9.22667 41.4267 8.56 41.24C7.89333 41.0533 7.24667 40.96 6.62 40.96C5.59333 40.96 4.82667 41.1333 4.32 41.48C3.82667 41.8267 3.58 42.2867 3.58 42.86C3.58 43.26 3.72 43.5867 4 43.84C4.29333 44.0933 4.66 44.2933 5.1 44.44C5.54 44.5867 6.14 44.7533 6.9 44.94C7.94 45.18 8.79333 45.4333 9.46 45.7C10.1267 45.9533 10.6933 46.3467 11.16 46.88C11.64 47.4133 11.88 48.1333 11.88 49.04C11.88 49.8133 11.6667 50.5133 11.24 51.14C10.8267 51.7667 10.1933 52.2667 9.34 52.64C8.48667 53.0133 7.44667 53.2 6.22 53.2ZM20.6381 52.42C20.3448 52.66 19.9848 52.84 19.5581 52.96C19.1448 53.08 18.7048 53.14 18.2381 53.14C17.0648 53.14 16.1581 52.8333 15.5181 52.22C14.8781 51.6067 14.5581 50.7133 14.5581 49.54V44.4H12.7981V42.4H14.5581V39.96H17.0581V42.4H19.9181V44.4H17.0581V49.48C17.0581 50 17.1848 50.4 17.4381 50.68C17.6915 50.9467 18.0581 51.08 18.5381 51.08C19.0981 51.08 19.5648 50.9333 19.9381 50.64L20.6381 52.42ZM22.6947 42.32H25.1947V53H22.6947V42.32ZM23.9547 40.56C23.5014 40.56 23.1214 40.42 22.8147 40.14C22.508 39.8467 22.3547 39.4867 22.3547 39.06C22.3547 38.6333 22.508 38.28 22.8147 38C23.1214 37.7067 23.5014 37.56 23.9547 37.56C24.408 37.56 24.788 37.7 25.0947 37.98C25.4014 38.2467 25.5547 38.5867 25.5547 39C25.5547 39.44 25.4014 39.8133 25.0947 40.12C24.8014 40.4133 24.4214 40.56 23.9547 40.56ZM32.8359 48.42L30.9759 50.18V53H28.4759V38.16H30.9759V47.12L36.1559 42.32H39.1559L34.6959 46.8L39.5759 53H36.5359L32.8359 48.42ZM44.1588 53.14C43.2921 53.14 42.4454 53.0267 41.6188 52.8C40.7921 52.5733 40.1321 52.2867 39.6388 51.94L40.5988 50.04C41.0788 50.36 41.6521 50.62 42.3188 50.82C42.9988 51.0067 43.6654 51.1 44.3188 51.1C45.8121 51.1 46.5588 50.7067 46.5588 49.92C46.5588 49.5467 46.3654 49.2867 45.9788 49.14C45.6054 48.9933 44.9988 48.8533 44.1588 48.72C43.2788 48.5867 42.5588 48.4333 41.9988 48.26C41.4521 48.0867 40.9721 47.7867 40.5588 47.36C40.1588 46.92 39.9588 46.3133 39.9588 45.54C39.9588 44.5267 40.3788 43.72 41.2188 43.12C42.0721 42.5067 43.2188 42.2 44.6588 42.2C45.3921 42.2 46.1254 42.2867 46.8588 42.46C47.5921 42.62 48.1921 42.84 48.6588 43.12L47.6988 45.02C46.7921 44.4867 45.7721 44.22 44.6388 44.22C43.9054 44.22 43.3454 44.3333 42.9588 44.56C42.5854 44.7733 42.3988 45.06 42.3988 45.42C42.3988 45.82 42.5988 46.1067 42.9988 46.28C43.4121 46.44 44.0454 46.5933 44.8988 46.74C45.7521 46.8733 46.4521 47.0267 46.9988 47.2C47.5454 47.3733 48.0121 47.6667 48.3988 48.08C48.7988 48.4933 48.9988 49.08 48.9988 49.84C48.9988 50.84 48.5654 51.64 47.6988 52.24C46.8321 52.84 45.6521 53.14 44.1588 53.14ZM57.5717 52.42C57.2784 52.66 56.9184 52.84 56.4917 52.96C56.0784 53.08 55.6384 53.14 55.1717 53.14C53.9984 53.14 53.0917 52.8333 52.4517 52.22C51.8117 51.6067 51.4917 50.7133 51.4917 49.54V44.4H49.7317V42.4H51.4917V39.96H53.9917V42.4H56.8517V44.4H53.9917V49.48C53.9917 50 54.1184 50.4 54.3717 50.68C54.6251 50.9467 54.9917 51.08 55.4717 51.08C56.0317 51.08 56.4984 50.9333 56.8717 50.64L57.5717 52.42ZM64.0767 53.14C62.9967 53.14 62.0234 52.9067 61.1567 52.44C60.2901 51.9733 59.6101 51.3267 59.1167 50.5C58.6367 49.66 58.3967 48.7133 58.3967 47.66C58.3967 46.6067 58.6367 45.6667 59.1167 44.84C59.6101 44.0133 60.2901 43.3667 61.1567 42.9C62.0234 42.4333 62.9967 42.2 64.0767 42.2C65.1701 42.2 66.1501 42.4333 67.0167 42.9C67.8834 43.3667 68.5567 44.0133 69.0367 44.84C69.5301 45.6667 69.7767 46.6067 69.7767 47.66C69.7767 48.7133 69.5301 49.66 69.0367 50.5C68.5567 51.3267 67.8834 51.9733 67.0167 52.44C66.1501 52.9067 65.1701 53.14 64.0767 53.14ZM64.0767 51C64.9967 51 65.7567 50.6933 66.3567 50.08C66.9567 49.4667 67.2567 48.66 67.2567 47.66C67.2567 46.66 66.9567 45.8533 66.3567 45.24C65.7567 44.6267 64.9967 44.32 64.0767 44.32C63.1567 44.32 62.3967 44.6267 61.7967 45.24C61.2101 45.8533 60.9167 46.66 60.9167 47.66C60.9167 48.66 61.2101 49.4667 61.7967 50.08C62.3967 50.6933 63.1567 51 64.0767 51ZM76.5073 40.04C75.454 40.04 74.9273 40.6133 74.9273 41.76V42.4H77.8673V44.4H75.0073V53H72.5073V44.4H70.7473V42.4H72.5073V41.72C72.5073 40.5733 72.8407 39.6733 73.5073 39.02C74.174 38.3533 75.114 38.02 76.3273 38.02C77.2873 38.02 78.0407 38.2133 78.5873 38.6L77.8873 40.48C77.4607 40.1867 77.0007 40.04 76.5073 40.04ZM89.8539 38.16V53H87.4539V51.62C87.0406 52.1267 86.5272 52.5067 85.9139 52.76C85.3139 53.0133 84.6472 53.14 83.9139 53.14C82.8872 53.14 81.9606 52.9133 81.1339 52.46C80.3206 52.0067 79.6806 51.3667 79.2139 50.54C78.7472 49.7 78.5139 48.74 78.5139 47.66C78.5139 46.58 78.7472 45.6267 79.2139 44.8C79.6806 43.9733 80.3206 43.3333 81.1339 42.88C81.9606 42.4267 82.8872 42.2 83.9139 42.2C84.6206 42.2 85.2672 42.32 85.8539 42.56C86.4406 42.8 86.9406 43.16 87.3539 43.64V38.16H89.8539ZM84.2139 51C84.8139 51 85.3539 50.8667 85.8339 50.6C86.3139 50.32 86.6939 49.9267 86.9739 49.42C87.2539 48.9133 87.3939 48.3267 87.3939 47.66C87.3939 46.9933 87.2539 46.4067 86.9739 45.9C86.6939 45.3933 86.3139 45.0067 85.8339 44.74C85.3539 44.46 84.8139 44.32 84.2139 44.32C83.6139 44.32 83.0739 44.46 82.5939 44.74C82.1139 45.0067 81.7339 45.3933 81.4539 45.9C81.1739 46.4067 81.0339 46.9933 81.0339 47.66C81.0339 48.3267 81.1739 48.9133 81.4539 49.42C81.7339 49.9267 82.1139 50.32 82.5939 50.6C83.0739 50.8667 83.6139 51 84.2139 51ZM93.1244 42.32H95.6244V53H93.1244V42.32ZM94.3844 40.56C93.931 40.56 93.551 40.42 93.2444 40.14C92.9377 39.8467 92.7844 39.4867 92.7844 39.06C92.7844 38.6333 92.9377 38.28 93.2444 38C93.551 37.7067 93.931 37.56 94.3844 37.56C94.8377 37.56 95.2177 37.7 95.5244 37.98C95.831 38.2467 95.9844 38.5867 95.9844 39C95.9844 39.44 95.831 39.8133 95.5244 40.12C95.231 40.4133 94.851 40.56 94.3844 40.56ZM103.706 53.14C102.626 53.14 101.652 52.9067 100.786 52.44C99.919 51.9733 99.239 51.3267 98.7456 50.5C98.2656 49.66 98.0256 48.7133 98.0256 47.66C98.0256 46.6067 98.2656 45.6667 98.7456 44.84C99.239 44.0133 99.919 43.3667 100.786 42.9C101.652 42.4333 102.626 42.2 103.706 42.2C104.799 42.2 105.779 42.4333 106.646 42.9C107.512 43.3667 108.186 44.0133 108.666 44.84C109.159 45.6667 109.406 46.6067 109.406 47.66C109.406 48.7133 109.159 49.66 108.666 50.5C108.186 51.3267 107.512 51.9733 106.646 52.44C105.779 52.9067 104.799 53.14 103.706 53.14ZM103.706 51C104.626 51 105.386 50.6933 105.986 50.08C106.586 49.4667 106.886 48.66 106.886 47.66C106.886 46.66 106.586 45.8533 105.986 45.24C105.386 44.6267 104.626 44.32 103.706 44.32C102.786 44.32 102.026 44.6267 101.426 45.24C100.839 45.8533 100.546 46.66 100.546 47.66C100.546 48.66 100.839 49.4667 101.426 50.08C102.026 50.6933 102.786 51 103.706 51ZM118.245 53L115.505 49.3L112.745 53H109.985L114.145 47.58L110.165 42.32H112.945L115.565 45.82L118.185 42.32H120.885L116.885 47.54L121.065 53H118.245ZM122.91 42.32H125.41V53H122.91V42.32ZM124.17 40.56C123.716 40.56 123.336 40.42 123.03 40.14C122.723 39.8467 122.57 39.4867 122.57 39.06C122.57 38.6333 122.723 38.28 123.03 38C123.336 37.7067 123.716 37.56 124.17 37.56C124.623 37.56 125.003 37.7 125.31 37.98C125.616 38.2467 125.77 38.5867 125.77 39C125.77 39.44 125.616 39.8133 125.31 40.12C125.016 40.4133 124.636 40.56 124.17 40.56ZM139.151 38.16V53H136.751V51.62C136.337 52.1267 135.824 52.5067 135.211 52.76C134.611 53.0133 133.944 53.14 133.211 53.14C132.184 53.14 131.257 52.9133 130.431 52.46C129.617 52.0067 128.977 51.3667 128.511 50.54C128.044 49.7 127.811 48.74 127.811 47.66C127.811 46.58 128.044 45.6267 128.511 44.8C128.977 43.9733 129.617 43.3333 130.431 42.88C131.257 42.4267 132.184 42.2 133.211 42.2C133.917 42.2 134.564 42.32 135.151 42.56C135.737 42.8 136.237 43.16 136.651 43.64V38.16H139.151ZM133.511 51C134.111 51 134.651 50.8667 135.131 50.6C135.611 50.32 135.991 49.9267 136.271 49.42C136.551 48.9133 136.691 48.3267 136.691 47.66C136.691 46.9933 136.551 46.4067 136.271 45.9C135.991 45.3933 135.611 45.0067 135.131 44.74C134.651 44.46 134.111 44.32 133.511 44.32C132.911 44.32 132.371 44.46 131.891 44.74C131.411 45.0067 131.031 45.3933 130.751 45.9C130.471 46.4067 130.331 46.9933 130.331 47.66C130.331 48.3267 130.471 48.9133 130.751 49.42C131.031 49.9267 131.411 50.32 131.891 50.6C132.371 50.8667 132.911 51 133.511 51ZM152.461 47.72C152.461 47.8933 152.448 48.14 152.421 48.46H144.041C144.188 49.2467 144.568 49.8733 145.181 50.34C145.808 50.7933 146.581 51.02 147.501 51.02C148.675 51.02 149.641 50.6333 150.401 49.86L151.741 51.4C151.261 51.9733 150.655 52.4067 149.921 52.7C149.188 52.9933 148.361 53.14 147.441 53.14C146.268 53.14 145.235 52.9067 144.341 52.44C143.448 51.9733 142.755 51.3267 142.261 50.5C141.781 49.66 141.541 48.7133 141.541 47.66C141.541 46.62 141.775 45.6867 142.241 44.86C142.721 44.02 143.381 43.3667 144.221 42.9C145.061 42.4333 146.008 42.2 147.061 42.2C148.101 42.2 149.028 42.4333 149.841 42.9C150.668 43.3533 151.308 44 151.761 44.84C152.228 45.6667 152.461 46.6267 152.461 47.72ZM147.061 44.2C146.261 44.2 145.581 44.44 145.021 44.92C144.475 45.3867 144.141 46.0133 144.021 46.8H150.081C149.975 46.0267 149.648 45.4 149.101 44.92C148.555 44.44 147.875 44.2 147.061 44.2Z" fill="#214ADB"/>
<path d="M64 64V92H58.68L44.72 75V92H38.32V64H43.68L57.6 81V64H64ZM80.8647 92.48C78.5447 92.48 76.478 91.9067 74.6647 90.76C72.8514 89.6133 71.4247 87.96 70.3847 85.8C69.3714 83.6133 68.8647 81.0133 68.8647 78C68.8647 74.9867 69.3714 72.4 70.3847 70.24C71.4247 68.0533 72.8514 66.3867 74.6647 65.24C76.478 64.0933 78.5447 63.52 80.8647 63.52C83.1847 63.52 85.2514 64.0933 87.0647 65.24C88.878 66.3867 90.2914 68.0533 91.3047 70.24C92.3447 72.4 92.8647 74.9867 92.8647 78C92.8647 81.0133 92.3447 83.6133 91.3047 85.8C90.2914 87.96 88.878 89.6133 87.0647 90.76C85.2514 91.9067 83.1847 92.48 80.8647 92.48ZM80.8647 87C82.5714 87 83.9047 86.2667 84.8647 84.8C85.8514 83.3333 86.3447 81.0667 86.3447 78C86.3447 74.9333 85.8514 72.6667 84.8647 71.2C83.9047 69.7333 82.5714 69 80.8647 69C79.1847 69 77.8514 69.7333 76.8647 71.2C75.9047 72.6667 75.4247 74.9333 75.4247 78C75.4247 81.0667 75.9047 83.3333 76.8647 84.8C77.8514 86.2667 79.1847 87 80.8647 87ZM116.699 86.72V92H95.5387V87.8L106.339 77.6C107.485 76.5067 108.259 75.5733 108.659 74.8C109.059 74 109.259 73.2133 109.259 72.44C109.259 71.32 108.872 70.4667 108.099 69.88C107.352 69.2667 106.245 68.96 104.779 68.96C103.552 68.96 102.445 69.2 101.459 69.68C100.472 70.1333 99.6454 70.8267 98.9788 71.76L94.2588 68.72C95.3521 67.0933 96.8588 65.8267 98.7788 64.92C100.699 63.9867 102.899 63.52 105.379 63.52C107.459 63.52 109.272 63.8667 110.819 64.56C112.392 65.2267 113.605 66.1867 114.459 67.44C115.339 68.6667 115.779 70.12 115.779 71.8C115.779 73.32 115.459 74.7467 114.819 76.08C114.179 77.4133 112.939 78.9333 111.099 80.64L104.659 86.72H116.699Z" fill="#214ADB"/>
<path d="M55.596 114.216C54.288 114.216 53.106 113.934 52.05 113.37C51.006 112.806 50.184 112.032 49.584 111.048C48.996 110.052 48.702 108.936 48.702 107.7C48.702 106.464 48.996 105.354 49.584 104.37C50.184 103.374 51.006 102.594 52.05 102.03C53.106 101.466 54.288 101.184 55.596 101.184C56.904 101.184 58.08 101.466 59.124 102.03C60.168 102.594 60.99 103.374 61.59 104.37C62.19 105.354 62.49 106.464 62.49 107.7C62.49 108.936 62.19 110.052 61.59 111.048C60.99 112.032 60.168 112.806 59.124 113.37C58.08 113.934 56.904 114.216 55.596 114.216ZM55.596 111.732C56.34 111.732 57.012 111.564 57.612 111.228C58.212 110.88 58.68 110.4 59.016 109.788C59.364 109.176 59.538 108.48 59.538 107.7C59.538 106.92 59.364 106.224 59.016 105.612C58.68 105 58.212 104.526 57.612 104.19C57.012 103.842 56.34 103.668 55.596 103.668C54.852 103.668 54.18 103.842 53.58 104.19C52.98 104.526 52.506 105 52.158 105.612C51.822 106.224 51.654 106.92 51.654 107.7C51.654 108.48 51.822 109.176 52.158 109.788C52.506 110.4 52.98 110.88 53.58 111.228C54.18 111.564 54.852 111.732 55.596 111.732Z" fill="#214ADB"/>
<path d="M97.596 114.216C96.288 114.216 95.106 113.934 94.05 113.37C93.006 112.806 92.184 112.032 91.584 111.048C90.996 110.052 90.702 108.936 90.702 107.7C90.702 106.464 90.996 105.354 91.584 104.37C92.184 103.374 93.006 102.594 94.05 102.03C95.106 101.466 96.288 101.184 97.596 101.184C98.904 101.184 100.08 101.466 101.124 102.03C102.168 102.594 102.99 103.374 103.59 104.37C104.19 105.354 104.49 106.464 104.49 107.7C104.49 108.936 104.19 110.052 103.59 111.048C102.99 112.032 102.168 112.806 101.124 113.37C100.08 113.934 98.904 114.216 97.596 114.216ZM97.596 111.732C98.34 111.732 99.012 111.564 99.612 111.228C100.212 110.88 100.68 110.4 101.016 109.788C101.364 109.176 101.538 108.48 101.538 107.7C101.538 106.92 101.364 106.224 101.016 105.612C100.68 105 100.212 104.526 99.612 104.19C99.012 103.842 98.34 103.668 97.596 103.668C96.852 103.668 96.18 103.842 95.58 104.19C94.98 104.526 94.506 105 94.158 105.612C93.822 106.224 93.654 106.92 93.654 107.7C93.654 108.48 93.822 109.176 94.158 109.788C94.506 110.4 94.98 110.88 95.58 111.228C96.18 111.564 96.852 111.732 97.596 111.732Z" fill="#214ADB"/>
<path d="M83.05 125.4V138H80.656L74.374 130.35V138H71.494V125.4H73.906L80.17 133.05V125.4H83.05Z" fill="#214ADB"/>
<path d="M63 115L69.0735 121.642" stroke="#214ADB"/>
<path d="M91.0732 115L84.9997 121.642" stroke="#214ADB"/>
<path d="M93.0732 117L86.9997 123.642" stroke="#214ADB"/>
<path d="M335.22 19.2C334.14 19.2 333.093 19.0467 332.08 18.74C331.08 18.4333 330.287 18.0267 329.7 17.52L330.6 15.5C331.173 15.9533 331.873 16.3267 332.7 16.62C333.54 16.9 334.38 17.04 335.22 17.04C336.26 17.04 337.033 16.8733 337.54 16.54C338.06 16.2067 338.32 15.7667 338.32 15.22C338.32 14.82 338.173 14.4933 337.88 14.24C337.6 13.9733 337.24 13.7667 336.8 13.62C336.36 13.4733 335.76 13.3067 335 13.12C333.933 12.8667 333.067 12.6133 332.4 12.36C331.747 12.1067 331.18 11.7133 330.7 11.18C330.233 10.6333 330 9.9 330 8.98C330 8.20667 330.207 7.50667 330.62 6.88C331.047 6.24 331.68 5.73333 332.52 5.36C333.373 4.98667 334.413 4.8 335.64 4.8C336.493 4.8 337.333 4.90667 338.16 5.12C338.987 5.33333 339.7 5.64 340.3 6.04L339.48 8.06C338.867 7.7 338.227 7.42667 337.56 7.24C336.893 7.05333 336.247 6.96 335.62 6.96C334.593 6.96 333.827 7.13333 333.32 7.48C332.827 7.82667 332.58 8.28667 332.58 8.86C332.58 9.26 332.72 9.58667 333 9.84C333.293 10.0933 333.66 10.2933 334.1 10.44C334.54 10.5867 335.14 10.7533 335.9 10.94C336.94 11.18 337.793 11.4333 338.46 11.7C339.127 11.9533 339.693 12.3467 340.16 12.88C340.64 13.4133 340.88 14.1333 340.88 15.04C340.88 15.8133 340.667 16.5133 340.24 17.14C339.827 17.7667 339.193 18.2667 338.34 18.64C337.487 19.0133 336.447 19.2 335.22 19.2ZM349.638 18.42C349.345 18.66 348.985 18.84 348.558 18.96C348.145 19.08 347.705 19.14 347.238 19.14C346.065 19.14 345.158 18.8333 344.518 18.22C343.878 17.6067 343.558 16.7133 343.558 15.54V10.4H341.798V8.4H343.558V5.96H346.058V8.4H348.918V10.4H346.058V15.48C346.058 16 346.185 16.4 346.438 16.68C346.691 16.9467 347.058 17.08 347.538 17.08C348.098 17.08 348.565 16.9333 348.938 16.64L349.638 18.42ZM351.695 8.32H354.195V19H351.695V8.32ZM352.955 6.56C352.501 6.56 352.121 6.42 351.815 6.14C351.508 5.84667 351.355 5.48667 351.355 5.06C351.355 4.63333 351.508 4.28 351.815 4C352.121 3.70667 352.501 3.56 352.955 3.56C353.408 3.56 353.788 3.7 354.095 3.98C354.401 4.24667 354.555 4.58667 354.555 5C354.555 5.44 354.401 5.81333 354.095 6.12C353.801 6.41333 353.421 6.56 352.955 6.56ZM361.836 14.42L359.976 16.18V19H357.476V4.16H359.976V13.12L365.156 8.32H368.156L363.696 12.8L368.576 19H365.536L361.836 14.42ZM373.159 19.14C372.292 19.14 371.445 19.0267 370.619 18.8C369.792 18.5733 369.132 18.2867 368.639 17.94L369.599 16.04C370.079 16.36 370.652 16.62 371.319 16.82C371.999 17.0067 372.665 17.1 373.319 17.1C374.812 17.1 375.559 16.7067 375.559 15.92C375.559 15.5467 375.365 15.2867 374.979 15.14C374.605 14.9933 373.999 14.8533 373.159 14.72C372.279 14.5867 371.559 14.4333 370.999 14.26C370.452 14.0867 369.972 13.7867 369.559 13.36C369.159 12.92 368.959 12.3133 368.959 11.54C368.959 10.5267 369.379 9.72 370.219 9.12C371.072 8.50667 372.219 8.2 373.659 8.2C374.392 8.2 375.125 8.28667 375.859 8.46C376.592 8.62 377.192 8.84 377.659 9.12L376.699 11.02C375.792 10.4867 374.772 10.22 373.639 10.22C372.905 10.22 372.345 10.3333 371.959 10.56C371.585 10.7733 371.399 11.06 371.399 11.42C371.399 11.82 371.599 12.1067 371.999 12.28C372.412 12.44 373.045 12.5933 373.899 12.74C374.752 12.8733 375.452 13.0267 375.999 13.2C376.545 13.3733 377.012 13.6667 377.399 14.08C377.799 14.4933 377.999 15.08 377.999 15.84C377.999 16.84 377.565 17.64 376.699 18.24C375.832 18.84 374.652 19.14 373.159 19.14ZM386.572 18.42C386.278 18.66 385.918 18.84 385.492 18.96C385.078 19.08 384.638 19.14 384.172 19.14C382.998 19.14 382.092 18.8333 381.452 18.22C380.812 17.6067 380.492 16.7133 380.492 15.54V10.4H378.732V8.4H380.492V5.96H382.992V8.4H385.852V10.4H382.992V15.48C382.992 16 383.118 16.4 383.372 16.68C383.625 16.9467 383.992 17.08 384.472 17.08C385.032 17.08 385.498 16.9333 385.872 16.64L386.572 18.42ZM393.077 19.14C391.997 19.14 391.023 18.9067 390.157 18.44C389.29 17.9733 388.61 17.3267 388.117 16.5C387.637 15.66 387.397 14.7133 387.397 13.66C387.397 12.6067 387.637 11.6667 388.117 10.84C388.61 10.0133 389.29 9.36667 390.157 8.9C391.023 8.43333 391.997 8.2 393.077 8.2C394.17 8.2 395.15 8.43333 396.017 8.9C396.883 9.36667 397.557 10.0133 398.037 10.84C398.53 11.6667 398.777 12.6067 398.777 13.66C398.777 14.7133 398.53 15.66 398.037 16.5C397.557 17.3267 396.883 17.9733 396.017 18.44C395.15 18.9067 394.17 19.14 393.077 19.14ZM393.077 17C393.997 17 394.757 16.6933 395.357 16.08C395.957 15.4667 396.257 14.66 396.257 13.66C396.257 12.66 395.957 11.8533 395.357 11.24C394.757 10.6267 393.997 10.32 393.077 10.32C392.157 10.32 391.397 10.6267 390.797 11.24C390.21 11.8533 389.917 12.66 389.917 13.66C389.917 14.66 390.21 15.4667 390.797 16.08C391.397 16.6933 392.157 17 393.077 17ZM405.507 6.04C404.454 6.04 403.927 6.61333 403.927 7.76V8.4H406.867V10.4H404.007V19H401.507V10.4H399.747V8.4H401.507V7.72C401.507 6.57333 401.841 5.67333 402.507 5.02C403.174 4.35333 404.114 4.02 405.327 4.02C406.287 4.02 407.041 4.21333 407.587 4.6L406.887 6.48C406.461 6.18667 406.001 6.04 405.507 6.04Z" fill="#F80D0D"/>
<path d="M380 30V58H374.68L360.72 41V58H354.32V30H359.68L373.6 47V30H380Z" fill="#F80D0D"/>
<path d="M360.05 67.4V80H357.656L351.374 72.35V80H348.494V67.4H350.906L357.17 75.05V67.4H360.05Z" fill="#F80D0D"/>
<path d="M386.05 67.4V80H383.656L377.374 72.35V80H374.494V67.4H376.906L383.17 75.05V67.4H386.05Z" fill="#F80D0D"/>
<path d="M363 71H372" stroke="#F80D0D"/>
<path d="M363 74H372" stroke="#F80D0D"/>
<path d="M363 77H372" stroke="#F80D0D"/>
<path d="M258.76 140.8V143H246.82V141.26L255.06 131.2H246.96V129H258.5V130.74L250.26 140.8H258.76ZM271.144 132.32V143H268.764V141.64C268.364 142.12 267.864 142.493 267.264 142.76C266.664 143.013 266.017 143.14 265.324 143.14C263.897 143.14 262.771 142.747 261.944 141.96C261.131 141.16 260.724 139.98 260.724 138.42V132.32H263.224V138.08C263.224 139.04 263.437 139.76 263.864 140.24C264.304 140.707 264.924 140.94 265.724 140.94C266.617 140.94 267.324 140.667 267.844 140.12C268.377 139.56 268.644 138.76 268.644 137.72V132.32H271.144ZM284.757 132.32V143H282.377V141.64C281.977 142.12 281.477 142.493 280.877 142.76C280.277 143.013 279.631 143.14 278.937 143.14C277.511 143.14 276.384 142.747 275.557 141.96C274.744 141.16 274.337 139.98 274.337 138.42V132.32H276.837V138.08C276.837 139.04 277.051 139.76 277.477 140.24C277.917 140.707 278.537 140.94 279.337 140.94C280.231 140.94 280.937 140.667 281.457 140.12C281.991 139.56 282.257 138.76 282.257 137.72V132.32H284.757ZM290.411 133.88C291.131 132.76 292.397 132.2 294.211 132.2V134.58C293.997 134.54 293.804 134.52 293.631 134.52C292.657 134.52 291.897 134.807 291.351 135.38C290.804 135.94 290.531 136.753 290.531 137.82V143H288.031V132.32H290.411V133.88ZM299.67 143.14C298.804 143.14 297.957 143.027 297.13 142.8C296.304 142.573 295.644 142.287 295.15 141.94L296.11 140.04C296.59 140.36 297.164 140.62 297.83 140.82C298.51 141.007 299.177 141.1 299.83 141.1C301.324 141.1 302.07 140.707 302.07 139.92C302.07 139.547 301.877 139.287 301.49 139.14C301.117 138.993 300.51 138.853 299.67 138.72C298.79 138.587 298.07 138.433 297.51 138.26C296.964 138.087 296.484 137.787 296.07 137.36C295.67 136.92 295.47 136.313 295.47 135.54C295.47 134.527 295.89 133.72 296.73 133.12C297.584 132.507 298.73 132.2 300.17 132.2C300.904 132.2 301.637 132.287 302.37 132.46C303.104 132.62 303.704 132.84 304.17 133.12L303.21 135.02C302.304 134.487 301.284 134.22 300.15 134.22C299.417 134.22 298.857 134.333 298.47 134.56C298.097 134.773 297.91 135.06 297.91 135.42C297.91 135.82 298.11 136.107 298.51 136.28C298.924 136.44 299.557 136.593 300.41 136.74C301.264 136.873 301.964 137.027 302.51 137.2C303.057 137.373 303.524 137.667 303.91 138.08C304.31 138.493 304.51 139.08 304.51 139.84C304.51 140.84 304.077 141.64 303.21 142.24C302.344 142.84 301.164 143.14 299.67 143.14ZM313.083 142.42C312.79 142.66 312.43 142.84 312.003 142.96C311.59 143.08 311.15 143.14 310.683 143.14C309.51 143.14 308.603 142.833 307.963 142.22C307.323 141.607 307.003 140.713 307.003 139.54V134.4H305.243V132.4H307.003V129.96H309.503V132.4H312.363V134.4H309.503V139.48C309.503 140 309.63 140.4 309.883 140.68C310.137 140.947 310.503 141.08 310.983 141.08C311.543 141.08 312.01 140.933 312.383 140.64L313.083 142.42ZM319.588 143.14C318.508 143.14 317.535 142.907 316.668 142.44C315.802 141.973 315.122 141.327 314.628 140.5C314.148 139.66 313.908 138.713 313.908 137.66C313.908 136.607 314.148 135.667 314.628 134.84C315.122 134.013 315.802 133.367 316.668 132.9C317.535 132.433 318.508 132.2 319.588 132.2C320.682 132.2 321.662 132.433 322.528 132.9C323.395 133.367 324.068 134.013 324.548 134.84C325.042 135.667 325.288 136.607 325.288 137.66C325.288 138.713 325.042 139.66 324.548 140.5C324.068 141.327 323.395 141.973 322.528 142.44C321.662 142.907 320.682 143.14 319.588 143.14ZM319.588 141C320.508 141 321.268 140.693 321.868 140.08C322.468 139.467 322.768 138.66 322.768 137.66C322.768 136.66 322.468 135.853 321.868 135.24C321.268 134.627 320.508 134.32 319.588 134.32C318.668 134.32 317.908 134.627 317.308 135.24C316.722 135.853 316.428 136.66 316.428 137.66C316.428 138.66 316.722 139.467 317.308 140.08C317.908 140.693 318.668 141 319.588 141ZM332.019 130.04C330.966 130.04 330.439 130.613 330.439 131.76V132.4H333.379V134.4H330.519V143H328.019V134.4H326.259V132.4H328.019V131.72C328.019 130.573 328.352 129.673 329.019 129.02C329.686 128.353 330.626 128.02 331.839 128.02C332.799 128.02 333.552 128.213 334.099 128.6L333.399 130.48C332.972 130.187 332.512 130.04 332.019 130.04Z" fill="#F80D0D"/>
<path d="M289.88 182.48C286.973 182.48 284.347 181.853 282 180.6C279.68 179.347 277.853 177.627 276.52 175.44C275.213 173.227 274.56 170.747 274.56 168C274.56 165.253 275.213 162.787 276.52 160.6C277.853 158.387 279.68 156.653 282 155.4C284.347 154.147 286.973 153.52 289.88 153.52C292.787 153.52 295.4 154.147 297.72 155.4C300.04 156.653 301.867 158.387 303.2 160.6C304.533 162.787 305.2 165.253 305.2 168C305.2 170.747 304.533 173.227 303.2 175.44C301.867 177.627 300.04 179.347 297.72 180.6C295.4 181.853 292.787 182.48 289.88 182.48ZM289.88 176.96C291.533 176.96 293.027 176.587 294.36 175.84C295.693 175.067 296.733 174 297.48 172.64C298.253 171.28 298.64 169.733 298.64 168C298.64 166.267 298.253 164.72 297.48 163.36C296.733 162 295.693 160.947 294.36 160.2C293.027 159.427 291.533 159.04 289.88 159.04C288.227 159.04 286.733 159.427 285.4 160.2C284.067 160.947 283.013 162 282.24 163.36C281.493 164.72 281.12 166.267 281.12 168C281.12 169.733 281.493 171.28 282.24 172.64C283.013 174 284.067 175.067 285.4 175.84C286.733 176.587 288.227 176.96 289.88 176.96Z" fill="#F80D0D"/>
<path d="M277.596 204.216C276.288 204.216 275.106 203.934 274.05 203.37C273.006 202.806 272.184 202.032 271.584 201.048C270.996 200.052 270.702 198.936 270.702 197.7C270.702 196.464 270.996 195.354 271.584 194.37C272.184 193.374 273.006 192.594 274.05 192.03C275.106 191.466 276.288 191.184 277.596 191.184C278.904 191.184 280.08 191.466 281.124 192.03C282.168 192.594 282.99 193.374 283.59 194.37C284.19 195.354 284.49 196.464 284.49 197.7C284.49 198.936 284.19 200.052 283.59 201.048C282.99 202.032 282.168 202.806 281.124 203.37C280.08 203.934 278.904 204.216 277.596 204.216ZM277.596 201.732C278.34 201.732 279.012 201.564 279.612 201.228C280.212 200.88 280.68 200.4 281.016 199.788C281.364 199.176 281.538 198.48 281.538 197.7C281.538 196.92 281.364 196.224 281.016 195.612C280.68 195 280.212 194.526 279.612 194.19C279.012 193.842 278.34 193.668 277.596 193.668C276.852 193.668 276.18 193.842 275.58 194.19C274.98 194.526 274.506 195 274.158 195.612C273.822 196.224 273.654 196.92 273.654 197.7C273.654 198.48 273.822 199.176 274.158 199.788C274.506 200.4 274.98 200.88 275.58 201.228C276.18 201.564 276.852 201.732 277.596 201.732Z" fill="#F80D0D"/>
<path d="M305.596 204.216C304.288 204.216 303.106 203.934 302.05 203.37C301.006 202.806 300.184 202.032 299.584 201.048C298.996 200.052 298.702 198.936 298.702 197.7C298.702 196.464 298.996 195.354 299.584 194.37C300.184 193.374 301.006 192.594 302.05 192.03C303.106 191.466 304.288 191.184 305.596 191.184C306.904 191.184 308.08 191.466 309.124 192.03C310.168 192.594 310.99 193.374 311.59 194.37C312.19 195.354 312.49 196.464 312.49 197.7C312.49 198.936 312.19 200.052 311.59 201.048C310.99 202.032 310.168 202.806 309.124 203.37C308.08 203.934 306.904 204.216 305.596 204.216ZM305.596 201.732C306.34 201.732 307.012 201.564 307.612 201.228C308.212 200.88 308.68 200.4 309.016 199.788C309.364 199.176 309.538 198.48 309.538 197.7C309.538 196.92 309.364 196.224 309.016 195.612C308.68 195 308.212 194.526 307.612 194.19C307.012 193.842 306.34 193.668 305.596 193.668C304.852 193.668 304.18 193.842 303.58 194.19C302.98 194.526 302.506 195 302.158 195.612C301.822 196.224 301.654 196.92 301.654 197.7C301.654 198.48 301.822 199.176 302.158 199.788C302.506 200.4 302.98 200.88 303.58 201.228C304.18 201.564 304.852 201.732 305.596 201.732Z" fill="#F80D0D"/>
<path d="M287 195H296" stroke="#F80D0D"/>
<path d="M287 198H296" stroke="#F80D0D"/>
<path d="M287 201H296" stroke="#F80D0D"/>
<path fill-rule="evenodd" clip-rule="evenodd" d="M238.908 77.5679L339.155 44.9755L338.845 44.0245L237.421 77H133.5V78H237.83L289.695 117.896L290.305 117.104L238.908 77.5679Z" fill="white"/>
</svg>
