<svg width="79" height="85" viewBox="0 0 79 85" fill="none" xmlns="http://www.w3.org/2000/svg">
<path d="M6.2202 19.2C5.1402 19.2 4.09353 19.0467 3.0802 18.74C2.0802 18.4333 1.28687 18.0267 0.700195 17.52L1.6002 15.5C2.17353 15.9533 2.87353 16.3267 3.7002 16.62C4.5402 16.9 5.3802 17.04 6.2202 17.04C7.2602 17.04 8.03353 16.8733 8.5402 16.54C9.0602 16.2067 9.3202 15.7667 9.3202 15.22C9.3202 14.82 9.17353 14.4933 8.8802 14.24C8.6002 13.9733 8.2402 13.7667 7.8002 13.62C7.3602 13.4733 6.7602 13.3067 6.0002 13.12C4.93353 12.8667 4.06687 12.6133 3.4002 12.36C2.74687 12.1067 2.1802 11.7133 1.7002 11.18C1.23353 10.6333 1.0002 9.9 1.0002 8.98C1.0002 8.20667 1.20687 7.50667 1.6202 6.88C2.04687 6.24 2.6802 5.73333 3.5202 5.36C4.37353 4.98667 5.41353 4.8 6.6402 4.8C7.49353 4.8 8.33353 4.90667 9.1602 5.12C9.98687 5.33333 10.7002 5.64 11.3002 6.04L10.4802 8.06C9.86687 7.7 9.22687 7.42667 8.5602 7.24C7.89353 7.05333 7.24687 6.96 6.6202 6.96C5.59353 6.96 4.82687 7.13333 4.3202 7.48C3.82687 7.82667 3.5802 8.28667 3.5802 8.86C3.5802 9.26 3.7202 9.58667 4.0002 9.84C4.29353 10.0933 4.6602 10.2933 5.1002 10.44C5.5402 10.5867 6.1402 10.7533 6.9002 10.94C7.9402 11.18 8.79353 11.4333 9.4602 11.7C10.1269 11.9533 10.6935 12.3467 11.1602 12.88C11.6402 13.4133 11.8802 14.1333 11.8802 15.04C11.8802 15.8133 11.6669 16.5133 11.2402 17.14C10.8269 17.7667 10.1935 18.2667 9.3402 18.64C8.48687 19.0133 7.44687 19.2 6.2202 19.2ZM20.6383 18.42C20.345 18.66 19.985 18.84 19.5583 18.96C19.145 19.08 18.705 19.14 18.2383 19.14C17.065 19.14 16.1583 18.8333 15.5183 18.22C14.8783 17.6067 14.5583 16.7133 14.5583 15.54V10.4H12.7983V8.4H14.5583V5.96H17.0583V8.4H19.9183V10.4H17.0583V15.48C17.0583 16 17.185 16.4 17.4383 16.68C17.6917 16.9467 18.0583 17.08 18.5383 17.08C19.0983 17.08 19.565 16.9333 19.9383 16.64L20.6383 18.42ZM22.6949 8.32H25.1949V19H22.6949V8.32ZM23.9549 6.56C23.5016 6.56 23.1216 6.42 22.8149 6.14C22.5082 5.84667 22.3549 5.48667 22.3549 5.06C22.3549 4.63333 22.5082 4.28 22.8149 4C23.1216 3.70667 23.5016 3.56 23.9549 3.56C24.4082 3.56 24.7882 3.7 25.0949 3.98C25.4016 4.24667 25.5549 4.58667 25.5549 5C25.5549 5.44 25.4016 5.81333 25.0949 6.12C24.8016 6.41333 24.4216 6.56 23.9549 6.56ZM32.8361 14.42L30.9761 16.18V19H28.4761V4.16H30.9761V13.12L36.1561 8.32H39.1561L34.6961 12.8L39.5761 19H36.5361L32.8361 14.42ZM44.159 19.14C43.2923 19.14 42.4456 19.0267 41.619 18.8C40.7923 18.5733 40.1323 18.2867 39.639 17.94L40.599 16.04C41.079 16.36 41.6523 16.62 42.319 16.82C42.999 17.0067 43.6656 17.1 44.319 17.1C45.8123 17.1 46.559 16.7067 46.559 15.92C46.559 15.5467 46.3656 15.2867 45.979 15.14C45.6056 14.9933 44.999 14.8533 44.159 14.72C43.279 14.5867 42.559 14.4333 41.999 14.26C41.4523 14.0867 40.9723 13.7867 40.559 13.36C40.159 12.92 39.959 12.3133 39.959 11.54C39.959 10.5267 40.379 9.72 41.219 9.12C42.0723 8.50667 43.219 8.2 44.659 8.2C45.3923 8.2 46.1256 8.28667 46.859 8.46C47.5923 8.62 48.1923 8.84 48.659 9.12L47.699 11.02C46.7923 10.4867 45.7723 10.22 44.639 10.22C43.9056 10.22 43.3456 10.3333 42.959 10.56C42.5856 10.7733 42.399 11.06 42.399 11.42C42.399 11.82 42.599 12.1067 42.999 12.28C43.4123 12.44 44.0456 12.5933 44.899 12.74C45.7523 12.8733 46.4523 13.0267 46.999 13.2C47.5456 13.3733 48.0123 13.6667 48.399 14.08C48.799 14.4933 48.999 15.08 48.999 15.84C48.999 16.84 48.5656 17.64 47.699 18.24C46.8323 18.84 45.6523 19.14 44.159 19.14ZM57.5719 18.42C57.2786 18.66 56.9186 18.84 56.4919 18.96C56.0786 19.08 55.6386 19.14 55.1719 19.14C53.9986 19.14 53.0919 18.8333 52.4519 18.22C51.8119 17.6067 51.4919 16.7133 51.4919 15.54V10.4H49.7319V8.4H51.4919V5.96H53.9919V8.4H56.8519V10.4H53.9919V15.48C53.9919 16 54.1186 16.4 54.3719 16.68C54.6253 16.9467 54.9919 17.08 55.4719 17.08C56.0319 17.08 56.4986 16.9333 56.8719 16.64L57.5719 18.42ZM64.0769 19.14C62.9969 19.14 62.0236 18.9067 61.1569 18.44C60.2903 17.9733 59.6103 17.3267 59.1169 16.5C58.6369 15.66 58.3969 14.7133 58.3969 13.66C58.3969 12.6067 58.6369 11.6667 59.1169 10.84C59.6103 10.0133 60.2903 9.36667 61.1569 8.9C62.0236 8.43333 62.9969 8.2 64.0769 8.2C65.1703 8.2 66.1503 8.43333 67.0169 8.9C67.8836 9.36667 68.5569 10.0133 69.0369 10.84C69.5303 11.6667 69.7769 12.6067 69.7769 13.66C69.7769 14.7133 69.5303 15.66 69.0369 16.5C68.5569 17.3267 67.8836 17.9733 67.0169 18.44C66.1503 18.9067 65.1703 19.14 64.0769 19.14ZM64.0769 17C64.9969 17 65.7569 16.6933 66.3569 16.08C66.9569 15.4667 67.2569 14.66 67.2569 13.66C67.2569 12.66 66.9569 11.8533 66.3569 11.24C65.7569 10.6267 64.9969 10.32 64.0769 10.32C63.1569 10.32 62.3969 10.6267 61.7969 11.24C61.2103 11.8533 60.9169 12.66 60.9169 13.66C60.9169 14.66 61.2103 15.4667 61.7969 16.08C62.3969 16.6933 63.1569 17 64.0769 17ZM76.5075 6.04C75.4542 6.04 74.9275 6.61333 74.9275 7.76V8.4H77.8675V10.4H75.0075V19H72.5075V10.4H70.7475V8.4H72.5075V7.72C72.5075 6.57333 72.8409 5.67333 73.5075 5.02C74.1742 4.35333 75.1142 4.02 76.3275 4.02C77.2875 4.02 78.0409 4.21333 78.5875 4.6L77.8875 6.48C77.4609 6.18667 77.0009 6.04 76.5075 6.04Z" fill="#F80D0D"/>
<path d="M51.0003 30V58H45.6803L31.7203 41V58H25.3203V30H30.6803L44.6003 47V30H51.0003Z" fill="#F80D0D"/>
<path d="M31.0501 67.4V80H28.6561L22.3741 72.35V80H19.4941V67.4H21.9061L28.1701 75.05V67.4H31.0501Z" fill="#F80D0D"/>
<path d="M57.0501 67.4V80H54.6561L48.3741 72.35V80H45.4941V67.4H47.9061L54.1701 75.05V67.4H57.0501Z" fill="#F80D0D"/>
<path d="M34 71H43" stroke="#F80D0D"/>
<path d="M34 74H43" stroke="#F80D0D"/>
<path d="M34 77H43" stroke="#F80D0D"/>
</svg>
