<svg width="79" height="85" viewBox="0 0 79 85" fill="none" xmlns="http://www.w3.org/2000/svg">
<path d="M6.22 19.2C5.14 19.2 4.09333 19.0467 3.08 18.74C2.08 18.4333 1.28667 18.0267 0.7 17.52L1.6 15.5C2.17333 15.9533 2.87333 16.3267 3.7 16.62C4.54 16.9 5.38 17.04 6.22 17.04C7.26 17.04 8.03333 16.8733 8.54 16.54C9.06 16.2067 9.32 15.7667 9.32 15.22C9.32 14.82 9.17333 14.4933 8.88 14.24C8.6 13.9733 8.24 13.7667 7.8 13.62C7.36 13.4733 6.76 13.3067 6 13.12C4.93333 12.8667 4.06667 12.6133 3.4 12.36C2.74667 12.1067 2.18 11.7133 1.7 11.18C1.23333 10.6333 1 9.9 1 8.98C1 8.20667 1.20667 7.50667 1.62 6.88C2.04667 6.24 2.68 5.73333 3.52 5.36C4.37333 4.98667 5.41333 4.8 6.64 4.8C7.49333 4.8 8.33333 4.90667 9.16 5.12C9.98667 5.33333 10.7 5.64 11.3 6.04L10.48 8.06C9.86667 7.7 9.22667 7.42667 8.56 7.24C7.89333 7.05333 7.24667 6.96 6.62 6.96C5.59333 6.96 4.82667 7.13333 4.32 7.48C3.82667 7.82667 3.58 8.28667 3.58 8.86C3.58 9.26 3.72 9.58667 4 9.84C4.29333 10.0933 4.66 10.2933 5.1 10.44C5.54 10.5867 6.14 10.7533 6.9 10.94C7.94 11.18 8.79333 11.4333 9.46 11.7C10.1267 11.9533 10.6933 12.3467 11.16 12.88C11.64 13.4133 11.88 14.1333 11.88 15.04C11.88 15.8133 11.6667 16.5133 11.24 17.14C10.8267 17.7667 10.1933 18.2667 9.34 18.64C8.48667 19.0133 7.44667 19.2 6.22 19.2ZM20.6381 18.42C20.3448 18.66 19.9848 18.84 19.5581 18.96C19.1448 19.08 18.7048 19.14 18.2381 19.14C17.0648 19.14 16.1581 18.8333 15.5181 18.22C14.8781 17.6067 14.5581 16.7133 14.5581 15.54V10.4H12.7981V8.4H14.5581V5.96H17.0581V8.4H19.9181V10.4H17.0581V15.48C17.0581 16 17.1848 16.4 17.4381 16.68C17.6915 16.9467 18.0581 17.08 18.5381 17.08C19.0981 17.08 19.5648 16.9333 19.9381 16.64L20.6381 18.42ZM22.6947 8.32H25.1947V19H22.6947V8.32ZM23.9547 6.56C23.5014 6.56 23.1214 6.42 22.8147 6.14C22.508 5.84667 22.3547 5.48667 22.3547 5.06C22.3547 4.63333 22.508 4.28 22.8147 4C23.1214 3.70667 23.5014 3.56 23.9547 3.56C24.408 3.56 24.788 3.7 25.0947 3.98C25.4014 4.24667 25.5547 4.58667 25.5547 5C25.5547 5.44 25.4014 5.81333 25.0947 6.12C24.8014 6.41333 24.4214 6.56 23.9547 6.56ZM32.8359 14.42L30.9759 16.18V19H28.4759V4.16H30.9759V13.12L36.1559 8.32H39.1559L34.6959 12.8L39.5759 19H36.5359L32.8359 14.42ZM44.1588 19.14C43.2921 19.14 42.4454 19.0267 41.6188 18.8C40.7921 18.5733 40.1321 18.2867 39.6388 17.94L40.5988 16.04C41.0788 16.36 41.6521 16.62 42.3188 16.82C42.9988 17.0067 43.6654 17.1 44.3188 17.1C45.8121 17.1 46.5588 16.7067 46.5588 15.92C46.5588 15.5467 46.3654 15.2867 45.9788 15.14C45.6054 14.9933 44.9988 14.8533 44.1588 14.72C43.2788 14.5867 42.5588 14.4333 41.9988 14.26C41.4521 14.0867 40.9721 13.7867 40.5588 13.36C40.1588 12.92 39.9588 12.3133 39.9588 11.54C39.9588 10.5267 40.3788 9.72 41.2188 9.12C42.0721 8.50667 43.2188 8.2 44.6588 8.2C45.3921 8.2 46.1254 8.28667 46.8588 8.46C47.5921 8.62 48.1921 8.84 48.6588 9.12L47.6988 11.02C46.7921 10.4867 45.7721 10.22 44.6388 10.22C43.9054 10.22 43.3454 10.3333 42.9588 10.56C42.5854 10.7733 42.3988 11.06 42.3988 11.42C42.3988 11.82 42.5988 12.1067 42.9988 12.28C43.4121 12.44 44.0454 12.5933 44.8988 12.74C45.7521 12.8733 46.4521 13.0267 46.9988 13.2C47.5454 13.3733 48.0121 13.6667 48.3988 14.08C48.7988 14.4933 48.9988 15.08 48.9988 15.84C48.9988 16.84 48.5654 17.64 47.6988 18.24C46.8321 18.84 45.6521 19.14 44.1588 19.14ZM57.5717 18.42C57.2784 18.66 56.9184 18.84 56.4917 18.96C56.0784 19.08 55.6384 19.14 55.1717 19.14C53.9984 19.14 53.0917 18.8333 52.4517 18.22C51.8117 17.6067 51.4917 16.7133 51.4917 15.54V10.4H49.7317V8.4H51.4917V5.96H53.9917V8.4H56.8517V10.4H53.9917V15.48C53.9917 16 54.1184 16.4 54.3717 16.68C54.6251 16.9467 54.9917 17.08 55.4717 17.08C56.0317 17.08 56.4984 16.9333 56.8717 16.64L57.5717 18.42ZM64.0767 19.14C62.9967 19.14 62.0234 18.9067 61.1567 18.44C60.2901 17.9733 59.6101 17.3267 59.1167 16.5C58.6367 15.66 58.3967 14.7133 58.3967 13.66C58.3967 12.6067 58.6367 11.6667 59.1167 10.84C59.6101 10.0133 60.2901 9.36667 61.1567 8.9C62.0234 8.43333 62.9967 8.2 64.0767 8.2C65.1701 8.2 66.1501 8.43333 67.0167 8.9C67.8834 9.36667 68.5567 10.0133 69.0367 10.84C69.5301 11.6667 69.7767 12.6067 69.7767 13.66C69.7767 14.7133 69.5301 15.66 69.0367 16.5C68.5567 17.3267 67.8834 17.9733 67.0167 18.44C66.1501 18.9067 65.1701 19.14 64.0767 19.14ZM64.0767 17C64.9967 17 65.7567 16.6933 66.3567 16.08C66.9567 15.4667 67.2567 14.66 67.2567 13.66C67.2567 12.66 66.9567 11.8533 66.3567 11.24C65.7567 10.6267 64.9967 10.32 64.0767 10.32C63.1567 10.32 62.3967 10.6267 61.7967 11.24C61.2101 11.8533 60.9167 12.66 60.9167 13.66C60.9167 14.66 61.2101 15.4667 61.7967 16.08C62.3967 16.6933 63.1567 17 64.0767 17ZM76.5073 6.04C75.454 6.04 74.9273 6.61333 74.9273 7.76V8.4H77.8673V10.4H75.0073V19H72.5073V10.4H70.7473V8.4H72.5073V7.72C72.5073 6.57333 72.8407 5.67333 73.5073 5.02C74.174 4.35333 75.114 4.02 76.3273 4.02C77.2873 4.02 78.0407 4.21333 78.5873 4.6L77.8873 6.48C77.4607 6.18667 77.0007 6.04 76.5073 6.04Z" fill="#F80D0D"/>
<path d="M51 30V58H45.68L31.72 41V58H25.32V30H30.68L44.6 47V30H51Z" fill="#F80D0D"/>
<path d="M31.05 67.4V80H28.656L22.374 72.35V80H19.494V67.4H21.906L28.17 75.05V67.4H31.05Z" fill="#F80D0D"/>
<path d="M57.05 67.4V80H54.656L48.374 72.35V80H45.494V67.4H47.906L54.17 75.05V67.4H57.05Z" fill="#F80D0D"/>
<path d="M34 71H43" stroke="#F80D0D"/>
<path d="M34 74H43" stroke="#F80D0D"/>
<path d="M34 77H43" stroke="#F80D0D"/>
</svg>
