<svg width="89" height="85" viewBox="0 0 89 85" fill="none" xmlns="http://www.w3.org/2000/svg">
<path d="M12.76 16.8V19H0.82V17.26L9.06 7.2H0.96V5H12.5V6.74L4.26 16.8H12.76ZM25.1441 8.32V19H22.7641V17.64C22.3641 18.12 21.8641 18.4933 21.2641 18.76C20.6641 19.0133 20.0174 19.14 19.3241 19.14C17.8974 19.14 16.7707 18.7467 15.9441 17.96C15.1307 17.16 14.7241 15.98 14.7241 14.42V8.32H17.2241V14.08C17.2241 15.04 17.4374 15.76 17.8641 16.24C18.3041 16.7067 18.9241 16.94 19.7241 16.94C20.6174 16.94 21.3241 16.6667 21.8441 16.12C22.3774 15.56 22.6441 14.76 22.6441 13.72V8.32H25.1441ZM38.7573 8.32V19H36.3773V17.64C35.9773 18.12 35.4773 18.4933 34.8773 18.76C34.2773 19.0133 33.6307 19.14 32.9373 19.14C31.5107 19.14 30.384 18.7467 29.5573 17.96C28.744 17.16 28.3373 15.98 28.3373 14.42V8.32H30.8373V14.08C30.8373 15.04 31.0507 15.76 31.4773 16.24C31.9173 16.7067 32.5373 16.94 33.3373 16.94C34.2307 16.94 34.9373 16.6667 35.4573 16.12C35.9907 15.56 36.2573 14.76 36.2573 13.72V8.32H38.7573ZM44.4106 9.88C45.1306 8.76 46.3973 8.2 48.2106 8.2V10.58C47.9973 10.54 47.804 10.52 47.6306 10.52C46.6573 10.52 45.8973 10.8067 45.3506 11.38C44.804 11.94 44.5306 12.7533 44.5306 13.82V19H42.0306V8.32H44.4106V9.88ZM53.6705 19.14C52.8038 19.14 51.9571 19.0267 51.1305 18.8C50.3038 18.5733 49.6438 18.2867 49.1505 17.94L50.1105 16.04C50.5905 16.36 51.1638 16.62 51.8305 16.82C52.5105 17.0067 53.1771 17.1 53.8305 17.1C55.3238 17.1 56.0705 16.7067 56.0705 15.92C56.0705 15.5467 55.8771 15.2867 55.4905 15.14C55.1171 14.9933 54.5105 14.8533 53.6705 14.72C52.7905 14.5867 52.0705 14.4333 51.5105 14.26C50.9638 14.0867 50.4838 13.7867 50.0705 13.36C49.6705 12.92 49.4705 12.3133 49.4705 11.54C49.4705 10.5267 49.8905 9.72 50.7305 9.12C51.5838 8.50667 52.7305 8.2 54.1705 8.2C54.9038 8.2 55.6371 8.28667 56.3705 8.46C57.1038 8.62 57.7038 8.84 58.1705 9.12L57.2105 11.02C56.3038 10.4867 55.2838 10.22 54.1505 10.22C53.4171 10.22 52.8571 10.3333 52.4705 10.56C52.0971 10.7733 51.9105 11.06 51.9105 11.42C51.9105 11.82 52.1105 12.1067 52.5105 12.28C52.9238 12.44 53.5571 12.5933 54.4105 12.74C55.2638 12.8733 55.9638 13.0267 56.5105 13.2C57.0571 13.3733 57.5238 13.6667 57.9105 14.08C58.3105 14.4933 58.5105 15.08 58.5105 15.84C58.5105 16.84 58.0771 17.64 57.2105 18.24C56.3438 18.84 55.1638 19.14 53.6705 19.14ZM67.0834 18.42C66.7901 18.66 66.4301 18.84 66.0034 18.96C65.5901 19.08 65.1501 19.14 64.6834 19.14C63.5101 19.14 62.6034 18.8333 61.9634 18.22C61.3234 17.6067 61.0034 16.7133 61.0034 15.54V10.4H59.2434V8.4H61.0034V5.96H63.5034V8.4H66.3634V10.4H63.5034V15.48C63.5034 16 63.6301 16.4 63.8834 16.68C64.1368 16.9467 64.5034 17.08 64.9834 17.08C65.5434 17.08 66.0101 16.9333 66.3834 16.64L67.0834 18.42ZM73.5884 19.14C72.5084 19.14 71.5351 18.9067 70.6684 18.44C69.8018 17.9733 69.1218 17.3267 68.6284 16.5C68.1484 15.66 67.9084 14.7133 67.9084 13.66C67.9084 12.6067 68.1484 11.6667 68.6284 10.84C69.1218 10.0133 69.8018 9.36667 70.6684 8.9C71.5351 8.43333 72.5084 8.2 73.5884 8.2C74.6818 8.2 75.6618 8.43333 76.5284 8.9C77.3951 9.36667 78.0684 10.0133 78.5484 10.84C79.0418 11.6667 79.2884 12.6067 79.2884 13.66C79.2884 14.7133 79.0418 15.66 78.5484 16.5C78.0684 17.3267 77.3951 17.9733 76.5284 18.44C75.6618 18.9067 74.6818 19.14 73.5884 19.14ZM73.5884 17C74.5084 17 75.2684 16.6933 75.8684 16.08C76.4684 15.4667 76.7684 14.66 76.7684 13.66C76.7684 12.66 76.4684 11.8533 75.8684 11.24C75.2684 10.6267 74.5084 10.32 73.5884 10.32C72.6684 10.32 71.9084 10.6267 71.3084 11.24C70.7218 11.8533 70.4284 12.66 70.4284 13.66C70.4284 14.66 70.7218 15.4667 71.3084 16.08C71.9084 16.6933 72.6684 17 73.5884 17ZM86.0191 6.04C84.9657 6.04 84.4391 6.61333 84.4391 7.76V8.4H87.3791V10.4H84.5191V19H82.0191V10.4H80.2591V8.4H82.0191V7.72C82.0191 6.57333 82.3524 5.67333 83.0191 5.02C83.6857 4.35333 84.6257 4.02 85.8391 4.02C86.7991 4.02 87.5524 4.21333 88.0991 4.6L87.3991 6.48C86.9724 6.18667 86.5124 6.04 86.0191 6.04Z" fill="#F80D0D"/>
<path d="M43.88 58.48C40.9733 58.48 38.3467 57.8533 36 56.6C33.68 55.3467 31.8533 53.6267 30.52 51.44C29.2133 49.2267 28.56 46.7467 28.56 44C28.56 41.2533 29.2133 38.7867 30.52 36.6C31.8533 34.3867 33.68 32.6533 36 31.4C38.3467 30.1467 40.9733 29.52 43.88 29.52C46.7867 29.52 49.4 30.1467 51.72 31.4C54.04 32.6533 55.8667 34.3867 57.2 36.6C58.5333 38.7867 59.2 41.2533 59.2 44C59.2 46.7467 58.5333 49.2267 57.2 51.44C55.8667 53.6267 54.04 55.3467 51.72 56.6C49.4 57.8533 46.7867 58.48 43.88 58.48ZM43.88 52.96C45.5333 52.96 47.0267 52.5867 48.36 51.84C49.6933 51.0667 50.7333 50 51.48 48.64C52.2533 47.28 52.64 45.7333 52.64 44C52.64 42.2667 52.2533 40.72 51.48 39.36C50.7333 38 49.6933 36.9467 48.36 36.2C47.0267 35.4267 45.5333 35.04 43.88 35.04C42.2267 35.04 40.7333 35.4267 39.4 36.2C38.0667 36.9467 37.0133 38 36.24 39.36C35.4933 40.72 35.12 42.2667 35.12 44C35.12 45.7333 35.4933 47.28 36.24 48.64C37.0133 50 38.0667 51.0667 39.4 51.84C40.7333 52.5867 42.2267 52.96 43.88 52.96Z" fill="#F80D0D"/>
<path d="M31.596 80.216C30.288 80.216 29.106 79.934 28.05 79.37C27.006 78.806 26.184 78.032 25.584 77.048C24.996 76.052 24.702 74.936 24.702 73.7C24.702 72.464 24.996 71.354 25.584 70.37C26.184 69.374 27.006 68.594 28.05 68.03C29.106 67.466 30.288 67.184 31.596 67.184C32.904 67.184 34.08 67.466 35.124 68.03C36.168 68.594 36.99 69.374 37.59 70.37C38.19 71.354 38.49 72.464 38.49 73.7C38.49 74.936 38.19 76.052 37.59 77.048C36.99 78.032 36.168 78.806 35.124 79.37C34.08 79.934 32.904 80.216 31.596 80.216ZM31.596 77.732C32.34 77.732 33.012 77.564 33.612 77.228C34.212 76.88 34.68 76.4 35.016 75.788C35.364 75.176 35.538 74.48 35.538 73.7C35.538 72.92 35.364 72.224 35.016 71.612C34.68 71 34.212 70.526 33.612 70.19C33.012 69.842 32.34 69.668 31.596 69.668C30.852 69.668 30.18 69.842 29.58 70.19C28.98 70.526 28.506 71 28.158 71.612C27.822 72.224 27.654 72.92 27.654 73.7C27.654 74.48 27.822 75.176 28.158 75.788C28.506 76.4 28.98 76.88 29.58 77.228C30.18 77.564 30.852 77.732 31.596 77.732Z" fill="#F80D0D"/>
<path d="M59.596 80.216C58.288 80.216 57.106 79.934 56.05 79.37C55.006 78.806 54.184 78.032 53.584 77.048C52.996 76.052 52.702 74.936 52.702 73.7C52.702 72.464 52.996 71.354 53.584 70.37C54.184 69.374 55.006 68.594 56.05 68.03C57.106 67.466 58.288 67.184 59.596 67.184C60.904 67.184 62.08 67.466 63.124 68.03C64.168 68.594 64.99 69.374 65.59 70.37C66.19 71.354 66.49 72.464 66.49 73.7C66.49 74.936 66.19 76.052 65.59 77.048C64.99 78.032 64.168 78.806 63.124 79.37C62.08 79.934 60.904 80.216 59.596 80.216ZM59.596 77.732C60.34 77.732 61.012 77.564 61.612 77.228C62.212 76.88 62.68 76.4 63.016 75.788C63.364 75.176 63.538 74.48 63.538 73.7C63.538 72.92 63.364 72.224 63.016 71.612C62.68 71 62.212 70.526 61.612 70.19C61.012 69.842 60.34 69.668 59.596 69.668C58.852 69.668 58.18 69.842 57.58 70.19C56.98 70.526 56.506 71 56.158 71.612C55.822 72.224 55.654 72.92 55.654 73.7C55.654 74.48 55.822 75.176 56.158 75.788C56.506 76.4 56.98 76.88 57.58 77.228C58.18 77.564 58.852 77.732 59.596 77.732Z" fill="#F80D0D"/>
<path d="M41 71H50" stroke="#F80D0D"/>
<path d="M41 74H50" stroke="#F80D0D"/>
<path d="M41 77H50" stroke="#F80D0D"/>
</svg>
