<svg width="179" height="288" viewBox="0 0 179 288" fill="none" xmlns="http://www.w3.org/2000/svg">
<path d="M21.22 19.2C20.14 19.2 19.0933 19.0467 18.08 18.74C17.08 18.4333 16.2867 18.0267 15.7 17.52L16.6 15.5C17.1733 15.9533 17.8733 16.3267 18.7 16.62C19.54 16.9 20.38 17.04 21.22 17.04C22.26 17.04 23.0333 16.8733 23.54 16.54C24.06 16.2067 24.32 15.7667 24.32 15.22C24.32 14.82 24.1733 14.4933 23.88 14.24C23.6 13.9733 23.24 13.7667 22.8 13.62C22.36 13.4733 21.76 13.3067 21 13.12C19.9333 12.8667 19.0667 12.6133 18.4 12.36C17.7467 12.1067 17.18 11.7133 16.7 11.18C16.2333 10.6333 16 9.9 16 8.98C16 8.20667 16.2067 7.50667 16.62 6.88C17.0467 6.24 17.68 5.73333 18.52 5.36C19.3733 4.98667 20.4133 4.8 21.64 4.8C22.4933 4.8 23.3333 4.90667 24.16 5.12C24.9867 5.33333 25.7 5.64 26.3 6.04L25.48 8.06C24.8667 7.7 24.2267 7.42667 23.56 7.24C22.8933 7.05333 22.2467 6.96 21.62 6.96C20.5933 6.96 19.8267 7.13333 19.32 7.48C18.8267 7.82667 18.58 8.28667 18.58 8.86C18.58 9.26 18.72 9.58667 19 9.84C19.2933 10.0933 19.66 10.2933 20.1 10.44C20.54 10.5867 21.14 10.7533 21.9 10.94C22.94 11.18 23.7933 11.4333 24.46 11.7C25.1267 11.9533 25.6933 12.3467 26.16 12.88C26.64 13.4133 26.88 14.1333 26.88 15.04C26.88 15.8133 26.6667 16.5133 26.24 17.14C25.8267 17.7667 25.1933 18.2667 24.34 18.64C23.4867 19.0133 22.4467 19.2 21.22 19.2ZM35.6381 18.42C35.3448 18.66 34.9848 18.84 34.5581 18.96C34.1448 19.08 33.7048 19.14 33.2381 19.14C32.0648 19.14 31.1581 18.8333 30.5181 18.22C29.8781 17.6067 29.5581 16.7133 29.5581 15.54V10.4H27.7981V8.4H29.5581V5.96H32.0581V8.4H34.9181V10.4H32.0581V15.48C32.0581 16 32.1848 16.4 32.4381 16.68C32.6915 16.9467 33.0581 17.08 33.5381 17.08C34.0981 17.08 34.5648 16.9333 34.9381 16.64L35.6381 18.42ZM37.6947 8.32H40.1947V19H37.6947V8.32ZM38.9547 6.56C38.5014 6.56 38.1214 6.42 37.8147 6.14C37.508 5.84667 37.3547 5.48667 37.3547 5.06C37.3547 4.63333 37.508 4.28 37.8147 4C38.1214 3.70667 38.5014 3.56 38.9547 3.56C39.408 3.56 39.788 3.7 40.0947 3.98C40.4014 4.24667 40.5547 4.58667 40.5547 5C40.5547 5.44 40.4014 5.81333 40.0947 6.12C39.8014 6.41333 39.4214 6.56 38.9547 6.56ZM47.8359 14.42L45.9759 16.18V19H43.4759V4.16H45.9759V13.12L51.1559 8.32H54.1559L49.6959 12.8L54.5759 19H51.5359L47.8359 14.42ZM59.1588 19.14C58.2921 19.14 57.4454 19.0267 56.6188 18.8C55.7921 18.5733 55.1321 18.2867 54.6388 17.94L55.5988 16.04C56.0788 16.36 56.6521 16.62 57.3188 16.82C57.9988 17.0067 58.6654 17.1 59.3188 17.1C60.8121 17.1 61.5588 16.7067 61.5588 15.92C61.5588 15.5467 61.3654 15.2867 60.9788 15.14C60.6054 14.9933 59.9988 14.8533 59.1588 14.72C58.2788 14.5867 57.5588 14.4333 56.9988 14.26C56.4521 14.0867 55.9721 13.7867 55.5588 13.36C55.1588 12.92 54.9588 12.3133 54.9588 11.54C54.9588 10.5267 55.3788 9.72 56.2188 9.12C57.0721 8.50667 58.2188 8.2 59.6588 8.2C60.3921 8.2 61.1254 8.28667 61.8588 8.46C62.5921 8.62 63.1921 8.84 63.6588 9.12L62.6988 11.02C61.7921 10.4867 60.7721 10.22 59.6388 10.22C58.9054 10.22 58.3454 10.3333 57.9588 10.56C57.5854 10.7733 57.3988 11.06 57.3988 11.42C57.3988 11.82 57.5988 12.1067 57.9988 12.28C58.4121 12.44 59.0454 12.5933 59.8988 12.74C60.7521 12.8733 61.4521 13.0267 61.9988 13.2C62.5454 13.3733 63.0121 13.6667 63.3988 14.08C63.7988 14.4933 63.9988 15.08 63.9988 15.84C63.9988 16.84 63.5654 17.64 62.6988 18.24C61.8321 18.84 60.6521 19.14 59.1588 19.14ZM72.5717 18.42C72.2784 18.66 71.9184 18.84 71.4917 18.96C71.0784 19.08 70.6384 19.14 70.1717 19.14C68.9984 19.14 68.0917 18.8333 67.4517 18.22C66.8117 17.6067 66.4917 16.7133 66.4917 15.54V10.4H64.7317V8.4H66.4917V5.96H68.9917V8.4H71.8517V10.4H68.9917V15.48C68.9917 16 69.1184 16.4 69.3717 16.68C69.6251 16.9467 69.9917 17.08 70.4717 17.08C71.0317 17.08 71.4984 16.9333 71.8717 16.64L72.5717 18.42ZM79.0767 19.14C77.9967 19.14 77.0234 18.9067 76.1567 18.44C75.2901 17.9733 74.6101 17.3267 74.1167 16.5C73.6367 15.66 73.3967 14.7133 73.3967 13.66C73.3967 12.6067 73.6367 11.6667 74.1167 10.84C74.6101 10.0133 75.2901 9.36667 76.1567 8.9C77.0234 8.43333 77.9967 8.2 79.0767 8.2C80.1701 8.2 81.1501 8.43333 82.0167 8.9C82.8834 9.36667 83.5567 10.0133 84.0367 10.84C84.5301 11.6667 84.7767 12.6067 84.7767 13.66C84.7767 14.7133 84.5301 15.66 84.0367 16.5C83.5567 17.3267 82.8834 17.9733 82.0167 18.44C81.1501 18.9067 80.1701 19.14 79.0767 19.14ZM79.0767 17C79.9967 17 80.7567 16.6933 81.3567 16.08C81.9567 15.4667 82.2567 14.66 82.2567 13.66C82.2567 12.66 81.9567 11.8533 81.3567 11.24C80.7567 10.6267 79.9967 10.32 79.0767 10.32C78.1567 10.32 77.3967 10.6267 76.7967 11.24C76.2101 11.8533 75.9167 12.66 75.9167 13.66C75.9167 14.66 76.2101 15.4667 76.7967 16.08C77.3967 16.6933 78.1567 17 79.0767 17ZM91.5073 6.04C90.454 6.04 89.9273 6.61333 89.9273 7.76V8.4H92.8673V10.4H90.0073V19H87.5073V10.4H85.7473V8.4H87.5073V7.72C87.5073 6.57333 87.8407 5.67333 88.5073 5.02C89.174 4.35333 90.114 4.02 91.3273 4.02C92.2873 4.02 93.0407 4.21333 93.5873 4.6L92.8873 6.48C92.4607 6.18667 92.0007 6.04 91.5073 6.04ZM104.854 4.16V19H102.454V17.62C102.041 18.1267 101.527 18.5067 100.914 18.76C100.314 19.0133 99.6472 19.14 98.9139 19.14C97.8872 19.14 96.9606 18.9133 96.1339 18.46C95.3206 18.0067 94.6806 17.3667 94.2139 16.54C93.7472 15.7 93.5139 14.74 93.5139 13.66C93.5139 12.58 93.7472 11.6267 94.2139 10.8C94.6806 9.97333 95.3206 9.33333 96.1339 8.88C96.9606 8.42667 97.8872 8.2 98.9139 8.2C99.6206 8.2 100.267 8.32 100.854 8.56C101.441 8.8 101.941 9.16 102.354 9.64V4.16H104.854ZM99.2139 17C99.8139 17 100.354 16.8667 100.834 16.6C101.314 16.32 101.694 15.9267 101.974 15.42C102.254 14.9133 102.394 14.3267 102.394 13.66C102.394 12.9933 102.254 12.4067 101.974 11.9C101.694 11.3933 101.314 11.0067 100.834 10.74C100.354 10.46 99.8139 10.32 99.2139 10.32C98.6139 10.32 98.0739 10.46 97.5939 10.74C97.1139 11.0067 96.7339 11.3933 96.4539 11.9C96.1739 12.4067 96.0339 12.9933 96.0339 13.66C96.0339 14.3267 96.1739 14.9133 96.4539 15.42C96.7339 15.9267 97.1139 16.32 97.5939 16.6C98.0739 16.8667 98.6139 17 99.2139 17ZM108.124 8.32H110.624V19H108.124V8.32ZM109.384 6.56C108.931 6.56 108.551 6.42 108.244 6.14C107.938 5.84667 107.784 5.48667 107.784 5.06C107.784 4.63333 107.938 4.28 108.244 4C108.551 3.70667 108.931 3.56 109.384 3.56C109.838 3.56 110.218 3.7 110.524 3.98C110.831 4.24667 110.984 4.58667 110.984 5C110.984 5.44 110.831 5.81333 110.524 6.12C110.231 6.41333 109.851 6.56 109.384 6.56ZM118.706 19.14C117.626 19.14 116.652 18.9067 115.786 18.44C114.919 17.9733 114.239 17.3267 113.746 16.5C113.266 15.66 113.026 14.7133 113.026 13.66C113.026 12.6067 113.266 11.6667 113.746 10.84C114.239 10.0133 114.919 9.36667 115.786 8.9C116.652 8.43333 117.626 8.2 118.706 8.2C119.799 8.2 120.779 8.43333 121.646 8.9C122.512 9.36667 123.186 10.0133 123.666 10.84C124.159 11.6667 124.406 12.6067 124.406 13.66C124.406 14.7133 124.159 15.66 123.666 16.5C123.186 17.3267 122.512 17.9733 121.646 18.44C120.779 18.9067 119.799 19.14 118.706 19.14ZM118.706 17C119.626 17 120.386 16.6933 120.986 16.08C121.586 15.4667 121.886 14.66 121.886 13.66C121.886 12.66 121.586 11.8533 120.986 11.24C120.386 10.6267 119.626 10.32 118.706 10.32C117.786 10.32 117.026 10.6267 116.426 11.24C115.839 11.8533 115.546 12.66 115.546 13.66C115.546 14.66 115.839 15.4667 116.426 16.08C117.026 16.6933 117.786 17 118.706 17ZM133.245 19L130.505 15.3L127.745 19H124.985L129.145 13.58L125.165 8.32H127.945L130.565 11.82L133.185 8.32H135.885L131.885 13.54L136.065 19H133.245ZM137.91 8.32H140.41V19H137.91V8.32ZM139.17 6.56C138.716 6.56 138.336 6.42 138.03 6.14C137.723 5.84667 137.57 5.48667 137.57 5.06C137.57 4.63333 137.723 4.28 138.03 4C138.336 3.70667 138.716 3.56 139.17 3.56C139.623 3.56 140.003 3.7 140.31 3.98C140.616 4.24667 140.77 4.58667 140.77 5C140.77 5.44 140.616 5.81333 140.31 6.12C140.016 6.41333 139.636 6.56 139.17 6.56ZM154.151 4.16V19H151.751V17.62C151.337 18.1267 150.824 18.5067 150.211 18.76C149.611 19.0133 148.944 19.14 148.211 19.14C147.184 19.14 146.257 18.9133 145.431 18.46C144.617 18.0067 143.977 17.3667 143.511 16.54C143.044 15.7 142.811 14.74 142.811 13.66C142.811 12.58 143.044 11.6267 143.511 10.8C143.977 9.97333 144.617 9.33333 145.431 8.88C146.257 8.42667 147.184 8.2 148.211 8.2C148.917 8.2 149.564 8.32 150.151 8.56C150.737 8.8 151.237 9.16 151.651 9.64V4.16H154.151ZM148.511 17C149.111 17 149.651 16.8667 150.131 16.6C150.611 16.32 150.991 15.9267 151.271 15.42C151.551 14.9133 151.691 14.3267 151.691 13.66C151.691 12.9933 151.551 12.4067 151.271 11.9C150.991 11.3933 150.611 11.0067 150.131 10.74C149.651 10.46 149.111 10.32 148.511 10.32C147.911 10.32 147.371 10.46 146.891 10.74C146.411 11.0067 146.031 11.3933 145.751 11.9C145.471 12.4067 145.331 12.9933 145.331 13.66C145.331 14.3267 145.471 14.9133 145.751 15.42C146.031 15.9267 146.411 16.32 146.891 16.6C147.371 16.8667 147.911 17 148.511 17ZM167.461 13.72C167.461 13.8933 167.448 14.14 167.421 14.46H159.041C159.188 15.2467 159.568 15.8733 160.181 16.34C160.808 16.7933 161.581 17.02 162.501 17.02C163.675 17.02 164.641 16.6333 165.401 15.86L166.741 17.4C166.261 17.9733 165.655 18.4067 164.921 18.7C164.188 18.9933 163.361 19.14 162.441 19.14C161.268 19.14 160.235 18.9067 159.341 18.44C158.448 17.9733 157.755 17.3267 157.261 16.5C156.781 15.66 156.541 14.7133 156.541 13.66C156.541 12.62 156.775 11.6867 157.241 10.86C157.721 10.02 158.381 9.36667 159.221 8.9C160.061 8.43333 161.008 8.2 162.061 8.2C163.101 8.2 164.028 8.43333 164.841 8.9C165.668 9.35333 166.308 10 166.761 10.84C167.228 11.6667 167.461 12.6267 167.461 13.72ZM162.061 10.2C161.261 10.2 160.581 10.44 160.021 10.92C159.475 11.3867 159.141 12.0133 159.021 12.8H165.081C164.975 12.0267 164.648 11.4 164.101 10.92C163.555 10.44 162.875 10.2 162.061 10.2Z" fill="#12184C"/>
<path d="M79 30V58H73.68L59.72 41V58H53.32V30H58.68L72.6 47V30H79ZM95.8647 58.48C93.5447 58.48 91.478 57.9067 89.6647 56.76C87.8514 55.6133 86.4247 53.96 85.3847 51.8C84.3714 49.6133 83.8647 47.0133 83.8647 44C83.8647 40.9867 84.3714 38.4 85.3847 36.24C86.4247 34.0533 87.8514 32.3867 89.6647 31.24C91.478 30.0933 93.5447 29.52 95.8647 29.52C98.1847 29.52 100.251 30.0933 102.065 31.24C103.878 32.3867 105.291 34.0533 106.305 36.24C107.345 38.4 107.865 40.9867 107.865 44C107.865 47.0133 107.345 49.6133 106.305 51.8C105.291 53.96 103.878 55.6133 102.065 56.76C100.251 57.9067 98.1847 58.48 95.8647 58.48ZM95.8647 53C97.5714 53 98.9047 52.2667 99.8647 50.8C100.851 49.3333 101.345 47.0667 101.345 44C101.345 40.9333 100.851 38.6667 99.8647 37.2C98.9047 35.7333 97.5714 35 95.8647 35C94.1847 35 92.8514 35.7333 91.8647 37.2C90.9047 38.6667 90.4247 40.9333 90.4247 44C90.4247 47.0667 90.9047 49.3333 91.8647 50.8C92.8514 52.2667 94.1847 53 95.8647 53ZM131.699 52.72V58H110.539V53.8L121.339 43.6C122.485 42.5067 123.259 41.5733 123.659 40.8C124.059 40 124.259 39.2133 124.259 38.44C124.259 37.32 123.872 36.4667 123.099 35.88C122.352 35.2667 121.245 34.96 119.779 34.96C118.552 34.96 117.445 35.2 116.459 35.68C115.472 36.1333 114.645 36.8267 113.979 37.76L109.259 34.72C110.352 33.0933 111.859 31.8267 113.779 30.92C115.699 29.9867 117.899 29.52 120.379 29.52C122.459 29.52 124.272 29.8667 125.819 30.56C127.392 31.2267 128.605 32.1867 129.459 33.44C130.339 34.6667 130.779 36.12 130.779 37.8C130.779 39.32 130.459 40.7467 129.819 42.08C129.179 43.4133 127.939 44.9333 126.099 46.64L119.659 52.72H131.699Z" fill="#12184C"/>
<path d="M70.596 80.216C69.288 80.216 68.106 79.934 67.05 79.37C66.006 78.806 65.184 78.032 64.584 77.048C63.996 76.052 63.702 74.936 63.702 73.7C63.702 72.464 63.996 71.354 64.584 70.37C65.184 69.374 66.006 68.594 67.05 68.03C68.106 67.466 69.288 67.184 70.596 67.184C71.904 67.184 73.08 67.466 74.124 68.03C75.168 68.594 75.99 69.374 76.59 70.37C77.19 71.354 77.49 72.464 77.49 73.7C77.49 74.936 77.19 76.052 76.59 77.048C75.99 78.032 75.168 78.806 74.124 79.37C73.08 79.934 71.904 80.216 70.596 80.216ZM70.596 77.732C71.34 77.732 72.012 77.564 72.612 77.228C73.212 76.88 73.68 76.4 74.016 75.788C74.364 75.176 74.538 74.48 74.538 73.7C74.538 72.92 74.364 72.224 74.016 71.612C73.68 71 73.212 70.526 72.612 70.19C72.012 69.842 71.34 69.668 70.596 69.668C69.852 69.668 69.18 69.842 68.58 70.19C67.98 70.526 67.506 71 67.158 71.612C66.822 72.224 66.654 72.92 66.654 73.7C66.654 74.48 66.822 75.176 67.158 75.788C67.506 76.4 67.98 76.88 68.58 77.228C69.18 77.564 69.852 77.732 70.596 77.732Z" fill="#F80D0D"/>
<path d="M112.596 80.216C111.288 80.216 110.106 79.934 109.05 79.37C108.006 78.806 107.184 78.032 106.584 77.048C105.996 76.052 105.702 74.936 105.702 73.7C105.702 72.464 105.996 71.354 106.584 70.37C107.184 69.374 108.006 68.594 109.05 68.03C110.106 67.466 111.288 67.184 112.596 67.184C113.904 67.184 115.08 67.466 116.124 68.03C117.168 68.594 117.99 69.374 118.59 70.37C119.19 71.354 119.49 72.464 119.49 73.7C119.49 74.936 119.19 76.052 118.59 77.048C117.99 78.032 117.168 78.806 116.124 79.37C115.08 79.934 113.904 80.216 112.596 80.216ZM112.596 77.732C113.34 77.732 114.012 77.564 114.612 77.228C115.212 76.88 115.68 76.4 116.016 75.788C116.364 75.176 116.538 74.48 116.538 73.7C116.538 72.92 116.364 72.224 116.016 71.612C115.68 71 115.212 70.526 114.612 70.19C114.012 69.842 113.34 69.668 112.596 69.668C111.852 69.668 111.18 69.842 110.58 70.19C109.98 70.526 109.506 71 109.158 71.612C108.822 72.224 108.654 72.92 108.654 73.7C108.654 74.48 108.822 75.176 109.158 75.788C109.506 76.4 109.98 76.88 110.58 77.228C111.18 77.564 111.852 77.732 112.596 77.732Z" fill="#F80D0D"/>
<path d="M98.05 91.4V104H95.656L89.374 96.35V104H86.494V91.4H88.906L95.17 99.05V91.4H98.05Z" fill="#F80D0D"/>
<path d="M78 81L84.0735 87.6417" stroke="#12184C"/>
<path d="M106.074 81L100.001 87.6417" stroke="#12184C"/>
<path d="M108.074 83L102.001 89.6417" stroke="#12184C"/>
<path d="M92 210.235L92 116" stroke="#12184C" stroke-width="3"/>
<path d="M1 285L93 209" stroke="#12184C" stroke-width="3"/>
<path d="M178 286L92 210" stroke="#12184C" stroke-width="3"/>
</svg>
