<svg width="279" height="418" viewBox="0 0 279 418" fill="none" xmlns="http://www.w3.org/2000/svg">
<path d="M65.22 19.2C64.14 19.2 63.0933 19.0467 62.08 18.74C61.08 18.4333 60.2867 18.0267 59.7 17.52L60.6 15.5C61.1733 15.9533 61.8733 16.3267 62.7 16.62C63.54 16.9 64.38 17.04 65.22 17.04C66.26 17.04 67.0333 16.8733 67.54 16.54C68.06 16.2067 68.32 15.7667 68.32 15.22C68.32 14.82 68.1733 14.4933 67.88 14.24C67.6 13.9733 67.24 13.7667 66.8 13.62C66.36 13.4733 65.76 13.3067 65 13.12C63.9333 12.8667 63.0667 12.6133 62.4 12.36C61.7467 12.1067 61.18 11.7133 60.7 11.18C60.2333 10.6333 60 9.9 60 8.98C60 8.20667 60.2067 7.50667 60.62 6.88C61.0467 6.24 61.68 5.73333 62.52 5.36C63.3733 4.98667 64.4133 4.8 65.64 4.8C66.4933 4.8 67.3333 4.90667 68.16 5.12C68.9867 5.33333 69.7 5.64 70.3 6.04L69.48 8.06C68.8667 7.7 68.2267 7.42667 67.56 7.24C66.8933 7.05333 66.2467 6.96 65.62 6.96C64.5933 6.96 63.8267 7.13333 63.32 7.48C62.8267 7.82667 62.58 8.28667 62.58 8.86C62.58 9.26 62.72 9.58667 63 9.84C63.2933 10.0933 63.66 10.2933 64.1 10.44C64.54 10.5867 65.14 10.7533 65.9 10.94C66.94 11.18 67.7933 11.4333 68.46 11.7C69.1267 11.9533 69.6933 12.3467 70.16 12.88C70.64 13.4133 70.88 14.1333 70.88 15.04C70.88 15.8133 70.6667 16.5133 70.24 17.14C69.8267 17.7667 69.1933 18.2667 68.34 18.64C67.4867 19.0133 66.4467 19.2 65.22 19.2ZM79.6381 18.42C79.3448 18.66 78.9848 18.84 78.5581 18.96C78.1448 19.08 77.7048 19.14 77.2381 19.14C76.0648 19.14 75.1581 18.8333 74.5181 18.22C73.8781 17.6067 73.5581 16.7133 73.5581 15.54V10.4H71.7981V8.4H73.5581V5.96H76.0581V8.4H78.9181V10.4H76.0581V15.48C76.0581 16 76.1848 16.4 76.4381 16.68C76.6915 16.9467 77.0581 17.08 77.5381 17.08C78.0981 17.08 78.5648 16.9333 78.9381 16.64L79.6381 18.42ZM81.6947 8.32H84.1947V19H81.6947V8.32ZM82.9547 6.56C82.5014 6.56 82.1214 6.42 81.8147 6.14C81.508 5.84667 81.3547 5.48667 81.3547 5.06C81.3547 4.63333 81.508 4.28 81.8147 4C82.1214 3.70667 82.5014 3.56 82.9547 3.56C83.408 3.56 83.788 3.7 84.0947 3.98C84.4014 4.24667 84.5547 4.58667 84.5547 5C84.5547 5.44 84.4014 5.81333 84.0947 6.12C83.8014 6.41333 83.4214 6.56 82.9547 6.56ZM91.8359 14.42L89.9759 16.18V19H87.4759V4.16H89.9759V13.12L95.1559 8.32H98.1559L93.6959 12.8L98.5759 19H95.5359L91.8359 14.42ZM103.159 19.14C102.292 19.14 101.445 19.0267 100.619 18.8C99.7921 18.5733 99.1321 18.2867 98.6388 17.94L99.5988 16.04C100.079 16.36 100.652 16.62 101.319 16.82C101.999 17.0067 102.665 17.1 103.319 17.1C104.812 17.1 105.559 16.7067 105.559 15.92C105.559 15.5467 105.365 15.2867 104.979 15.14C104.605 14.9933 103.999 14.8533 103.159 14.72C102.279 14.5867 101.559 14.4333 100.999 14.26C100.452 14.0867 99.9721 13.7867 99.5588 13.36C99.1588 12.92 98.9588 12.3133 98.9588 11.54C98.9588 10.5267 99.3788 9.72 100.219 9.12C101.072 8.50667 102.219 8.2 103.659 8.2C104.392 8.2 105.125 8.28667 105.859 8.46C106.592 8.62 107.192 8.84 107.659 9.12L106.699 11.02C105.792 10.4867 104.772 10.22 103.639 10.22C102.905 10.22 102.345 10.3333 101.959 10.56C101.585 10.7733 101.399 11.06 101.399 11.42C101.399 11.82 101.599 12.1067 101.999 12.28C102.412 12.44 103.045 12.5933 103.899 12.74C104.752 12.8733 105.452 13.0267 105.999 13.2C106.545 13.3733 107.012 13.6667 107.399 14.08C107.799 14.4933 107.999 15.08 107.999 15.84C107.999 16.84 107.565 17.64 106.699 18.24C105.832 18.84 104.652 19.14 103.159 19.14ZM116.572 18.42C116.278 18.66 115.918 18.84 115.492 18.96C115.078 19.08 114.638 19.14 114.172 19.14C112.998 19.14 112.092 18.8333 111.452 18.22C110.812 17.6067 110.492 16.7133 110.492 15.54V10.4H108.732V8.4H110.492V5.96H112.992V8.4H115.852V10.4H112.992V15.48C112.992 16 113.118 16.4 113.372 16.68C113.625 16.9467 113.992 17.08 114.472 17.08C115.032 17.08 115.498 16.9333 115.872 16.64L116.572 18.42ZM123.077 19.14C121.997 19.14 121.023 18.9067 120.157 18.44C119.29 17.9733 118.61 17.3267 118.117 16.5C117.637 15.66 117.397 14.7133 117.397 13.66C117.397 12.6067 117.637 11.6667 118.117 10.84C118.61 10.0133 119.29 9.36667 120.157 8.9C121.023 8.43333 121.997 8.2 123.077 8.2C124.17 8.2 125.15 8.43333 126.017 8.9C126.883 9.36667 127.557 10.0133 128.037 10.84C128.53 11.6667 128.777 12.6067 128.777 13.66C128.777 14.7133 128.53 15.66 128.037 16.5C127.557 17.3267 126.883 17.9733 126.017 18.44C125.15 18.9067 124.17 19.14 123.077 19.14ZM123.077 17C123.997 17 124.757 16.6933 125.357 16.08C125.957 15.4667 126.257 14.66 126.257 13.66C126.257 12.66 125.957 11.8533 125.357 11.24C124.757 10.6267 123.997 10.32 123.077 10.32C122.157 10.32 121.397 10.6267 120.797 11.24C120.21 11.8533 119.917 12.66 119.917 13.66C119.917 14.66 120.21 15.4667 120.797 16.08C121.397 16.6933 122.157 17 123.077 17ZM135.507 6.04C134.454 6.04 133.927 6.61333 133.927 7.76V8.4H136.867V10.4H134.007V19H131.507V10.4H129.747V8.4H131.507V7.72C131.507 6.57333 131.841 5.67333 132.507 5.02C133.174 4.35333 134.114 4.02 135.327 4.02C136.287 4.02 137.041 4.21333 137.587 4.6L136.887 6.48C136.461 6.18667 136.001 6.04 135.507 6.04ZM148.854 4.16V19H146.454V17.62C146.041 18.1267 145.527 18.5067 144.914 18.76C144.314 19.0133 143.647 19.14 142.914 19.14C141.887 19.14 140.961 18.9133 140.134 18.46C139.321 18.0067 138.681 17.3667 138.214 16.54C137.747 15.7 137.514 14.74 137.514 13.66C137.514 12.58 137.747 11.6267 138.214 10.8C138.681 9.97333 139.321 9.33333 140.134 8.88C140.961 8.42667 141.887 8.2 142.914 8.2C143.621 8.2 144.267 8.32 144.854 8.56C145.441 8.8 145.941 9.16 146.354 9.64V4.16H148.854ZM143.214 17C143.814 17 144.354 16.8667 144.834 16.6C145.314 16.32 145.694 15.9267 145.974 15.42C146.254 14.9133 146.394 14.3267 146.394 13.66C146.394 12.9933 146.254 12.4067 145.974 11.9C145.694 11.3933 145.314 11.0067 144.834 10.74C144.354 10.46 143.814 10.32 143.214 10.32C142.614 10.32 142.074 10.46 141.594 10.74C141.114 11.0067 140.734 11.3933 140.454 11.9C140.174 12.4067 140.034 12.9933 140.034 13.66C140.034 14.3267 140.174 14.9133 140.454 15.42C140.734 15.9267 141.114 16.32 141.594 16.6C142.074 16.8667 142.614 17 143.214 17ZM152.124 8.32H154.624V19H152.124V8.32ZM153.384 6.56C152.931 6.56 152.551 6.42 152.244 6.14C151.938 5.84667 151.784 5.48667 151.784 5.06C151.784 4.63333 151.938 4.28 152.244 4C152.551 3.70667 152.931 3.56 153.384 3.56C153.838 3.56 154.218 3.7 154.524 3.98C154.831 4.24667 154.984 4.58667 154.984 5C154.984 5.44 154.831 5.81333 154.524 6.12C154.231 6.41333 153.851 6.56 153.384 6.56ZM162.706 19.14C161.626 19.14 160.652 18.9067 159.786 18.44C158.919 17.9733 158.239 17.3267 157.746 16.5C157.266 15.66 157.026 14.7133 157.026 13.66C157.026 12.6067 157.266 11.6667 157.746 10.84C158.239 10.0133 158.919 9.36667 159.786 8.9C160.652 8.43333 161.626 8.2 162.706 8.2C163.799 8.2 164.779 8.43333 165.646 8.9C166.512 9.36667 167.186 10.0133 167.666 10.84C168.159 11.6667 168.406 12.6067 168.406 13.66C168.406 14.7133 168.159 15.66 167.666 16.5C167.186 17.3267 166.512 17.9733 165.646 18.44C164.779 18.9067 163.799 19.14 162.706 19.14ZM162.706 17C163.626 17 164.386 16.6933 164.986 16.08C165.586 15.4667 165.886 14.66 165.886 13.66C165.886 12.66 165.586 11.8533 164.986 11.24C164.386 10.6267 163.626 10.32 162.706 10.32C161.786 10.32 161.026 10.6267 160.426 11.24C159.839 11.8533 159.546 12.66 159.546 13.66C159.546 14.66 159.839 15.4667 160.426 16.08C161.026 16.6933 161.786 17 162.706 17ZM177.245 19L174.505 15.3L171.745 19H168.985L173.145 13.58L169.165 8.32H171.945L174.565 11.82L177.185 8.32H179.885L175.885 13.54L180.065 19H177.245ZM181.91 8.32H184.41V19H181.91V8.32ZM183.17 6.56C182.716 6.56 182.336 6.42 182.03 6.14C181.723 5.84667 181.57 5.48667 181.57 5.06C181.57 4.63333 181.723 4.28 182.03 4C182.336 3.70667 182.716 3.56 183.17 3.56C183.623 3.56 184.003 3.7 184.31 3.98C184.616 4.24667 184.77 4.58667 184.77 5C184.77 5.44 184.616 5.81333 184.31 6.12C184.016 6.41333 183.636 6.56 183.17 6.56ZM198.151 4.16V19H195.751V17.62C195.337 18.1267 194.824 18.5067 194.211 18.76C193.611 19.0133 192.944 19.14 192.211 19.14C191.184 19.14 190.257 18.9133 189.431 18.46C188.617 18.0067 187.977 17.3667 187.511 16.54C187.044 15.7 186.811 14.74 186.811 13.66C186.811 12.58 187.044 11.6267 187.511 10.8C187.977 9.97333 188.617 9.33333 189.431 8.88C190.257 8.42667 191.184 8.2 192.211 8.2C192.917 8.2 193.564 8.32 194.151 8.56C194.737 8.8 195.237 9.16 195.651 9.64V4.16H198.151ZM192.511 17C193.111 17 193.651 16.8667 194.131 16.6C194.611 16.32 194.991 15.9267 195.271 15.42C195.551 14.9133 195.691 14.3267 195.691 13.66C195.691 12.9933 195.551 12.4067 195.271 11.9C194.991 11.3933 194.611 11.0067 194.131 10.74C193.651 10.46 193.111 10.32 192.511 10.32C191.911 10.32 191.371 10.46 190.891 10.74C190.411 11.0067 190.031 11.3933 189.751 11.9C189.471 12.4067 189.331 12.9933 189.331 13.66C189.331 14.3267 189.471 14.9133 189.751 15.42C190.031 15.9267 190.411 16.32 190.891 16.6C191.371 16.8667 191.911 17 192.511 17ZM211.461 13.72C211.461 13.8933 211.448 14.14 211.421 14.46H203.041C203.188 15.2467 203.568 15.8733 204.181 16.34C204.808 16.7933 205.581 17.02 206.501 17.02C207.675 17.02 208.641 16.6333 209.401 15.86L210.741 17.4C210.261 17.9733 209.655 18.4067 208.921 18.7C208.188 18.9933 207.361 19.14 206.441 19.14C205.268 19.14 204.235 18.9067 203.341 18.44C202.448 17.9733 201.755 17.3267 201.261 16.5C200.781 15.66 200.541 14.7133 200.541 13.66C200.541 12.62 200.775 11.6867 201.241 10.86C201.721 10.02 202.381 9.36667 203.221 8.9C204.061 8.43333 205.008 8.2 206.061 8.2C207.101 8.2 208.028 8.43333 208.841 8.9C209.668 9.35333 210.308 10 210.761 10.84C211.228 11.6667 211.461 12.6267 211.461 13.72ZM206.061 10.2C205.261 10.2 204.581 10.44 204.021 10.92C203.475 11.3867 203.141 12.0133 203.021 12.8H209.081C208.975 12.0267 208.648 11.4 208.101 10.92C207.555 10.44 206.875 10.2 206.061 10.2Z" fill="#12184C"/>
<path d="M123 30V58H117.68L103.72 41V58H97.32V30H102.68L116.6 47V30H123ZM139.865 58.48C137.545 58.48 135.478 57.9067 133.665 56.76C131.851 55.6133 130.425 53.96 129.385 51.8C128.371 49.6133 127.865 47.0133 127.865 44C127.865 40.9867 128.371 38.4 129.385 36.24C130.425 34.0533 131.851 32.3867 133.665 31.24C135.478 30.0933 137.545 29.52 139.865 29.52C142.185 29.52 144.251 30.0933 146.065 31.24C147.878 32.3867 149.291 34.0533 150.305 36.24C151.345 38.4 151.865 40.9867 151.865 44C151.865 47.0133 151.345 49.6133 150.305 51.8C149.291 53.96 147.878 55.6133 146.065 56.76C144.251 57.9067 142.185 58.48 139.865 58.48ZM139.865 53C141.571 53 142.905 52.2667 143.865 50.8C144.851 49.3333 145.345 47.0667 145.345 44C145.345 40.9333 144.851 38.6667 143.865 37.2C142.905 35.7333 141.571 35 139.865 35C138.185 35 136.851 35.7333 135.865 37.2C134.905 38.6667 134.425 40.9333 134.425 44C134.425 47.0667 134.905 49.3333 135.865 50.8C136.851 52.2667 138.185 53 139.865 53ZM175.699 52.72V58H154.539V53.8L165.339 43.6C166.485 42.5067 167.259 41.5733 167.659 40.8C168.059 40 168.259 39.2133 168.259 38.44C168.259 37.32 167.872 36.4667 167.099 35.88C166.352 35.2667 165.245 34.96 163.779 34.96C162.552 34.96 161.445 35.2 160.459 35.68C159.472 36.1333 158.645 36.8267 157.979 37.76L153.259 34.72C154.352 33.0933 155.859 31.8267 157.779 30.92C159.699 29.9867 161.899 29.52 164.379 29.52C166.459 29.52 168.272 29.8667 169.819 30.56C171.392 31.2267 172.605 32.1867 173.459 33.44C174.339 34.6667 174.779 36.12 174.779 37.8C174.779 39.32 174.459 40.7467 173.819 42.08C173.179 43.4133 171.939 44.9333 170.099 46.64L163.659 52.72H175.699Z" fill="#12184C"/>
<path d="M114.596 80.216C113.288 80.216 112.106 79.934 111.05 79.37C110.006 78.806 109.184 78.032 108.584 77.048C107.996 76.052 107.702 74.936 107.702 73.7C107.702 72.464 107.996 71.354 108.584 70.37C109.184 69.374 110.006 68.594 111.05 68.03C112.106 67.466 113.288 67.184 114.596 67.184C115.904 67.184 117.08 67.466 118.124 68.03C119.168 68.594 119.99 69.374 120.59 70.37C121.19 71.354 121.49 72.464 121.49 73.7C121.49 74.936 121.19 76.052 120.59 77.048C119.99 78.032 119.168 78.806 118.124 79.37C117.08 79.934 115.904 80.216 114.596 80.216ZM114.596 77.732C115.34 77.732 116.012 77.564 116.612 77.228C117.212 76.88 117.68 76.4 118.016 75.788C118.364 75.176 118.538 74.48 118.538 73.7C118.538 72.92 118.364 72.224 118.016 71.612C117.68 71 117.212 70.526 116.612 70.19C116.012 69.842 115.34 69.668 114.596 69.668C113.852 69.668 113.18 69.842 112.58 70.19C111.98 70.526 111.506 71 111.158 71.612C110.822 72.224 110.654 72.92 110.654 73.7C110.654 74.48 110.822 75.176 111.158 75.788C111.506 76.4 111.98 76.88 112.58 77.228C113.18 77.564 113.852 77.732 114.596 77.732Z" fill="#F80D0D"/>
<path d="M156.596 80.216C155.288 80.216 154.106 79.934 153.05 79.37C152.006 78.806 151.184 78.032 150.584 77.048C149.996 76.052 149.702 74.936 149.702 73.7C149.702 72.464 149.996 71.354 150.584 70.37C151.184 69.374 152.006 68.594 153.05 68.03C154.106 67.466 155.288 67.184 156.596 67.184C157.904 67.184 159.08 67.466 160.124 68.03C161.168 68.594 161.99 69.374 162.59 70.37C163.19 71.354 163.49 72.464 163.49 73.7C163.49 74.936 163.19 76.052 162.59 77.048C161.99 78.032 161.168 78.806 160.124 79.37C159.08 79.934 157.904 80.216 156.596 80.216ZM156.596 77.732C157.34 77.732 158.012 77.564 158.612 77.228C159.212 76.88 159.68 76.4 160.016 75.788C160.364 75.176 160.538 74.48 160.538 73.7C160.538 72.92 160.364 72.224 160.016 71.612C159.68 71 159.212 70.526 158.612 70.19C158.012 69.842 157.34 69.668 156.596 69.668C155.852 69.668 155.18 69.842 154.58 70.19C153.98 70.526 153.506 71 153.158 71.612C152.822 72.224 152.654 72.92 152.654 73.7C152.654 74.48 152.822 75.176 153.158 75.788C153.506 76.4 153.98 76.88 154.58 77.228C155.18 77.564 155.852 77.732 156.596 77.732Z" fill="#F80D0D"/>
<path d="M142.05 91.4V104H139.656L133.374 96.35V104H130.494V91.4H132.906L139.17 99.05V91.4H142.05Z" fill="#12184C"/>
<path d="M122 81L128.074 87.6417" stroke="#12184C"/>
<path d="M150.074 81L144.001 87.6417" stroke="#12184C"/>
<path d="M152.074 83L146.001 89.6417" stroke="#12184C"/>
<path d="M6.22 352.2C5.14 352.2 4.09333 352.047 3.08 351.74C2.08 351.433 1.28667 351.027 0.7 350.52L1.6 348.5C2.17333 348.953 2.87333 349.327 3.7 349.62C4.54 349.9 5.38 350.04 6.22 350.04C7.26 350.04 8.03333 349.873 8.54 349.54C9.06 349.207 9.32 348.767 9.32 348.22C9.32 347.82 9.17333 347.493 8.88 347.24C8.6 346.973 8.24 346.767 7.8 346.62C7.36 346.473 6.76 346.307 6 346.12C4.93333 345.867 4.06667 345.613 3.4 345.36C2.74667 345.107 2.18 344.713 1.7 344.18C1.23333 343.633 1 342.9 1 341.98C1 341.207 1.20667 340.507 1.62 339.88C2.04667 339.24 2.68 338.733 3.52 338.36C4.37333 337.987 5.41333 337.8 6.64 337.8C7.49333 337.8 8.33333 337.907 9.16 338.12C9.98667 338.333 10.7 338.64 11.3 339.04L10.48 341.06C9.86667 340.7 9.22667 340.427 8.56 340.24C7.89333 340.053 7.24667 339.96 6.62 339.96C5.59333 339.96 4.82667 340.133 4.32 340.48C3.82667 340.827 3.58 341.287 3.58 341.86C3.58 342.26 3.72 342.587 4 342.84C4.29333 343.093 4.66 343.293 5.1 343.44C5.54 343.587 6.14 343.753 6.9 343.94C7.94 344.18 8.79333 344.433 9.46 344.7C10.1267 344.953 10.6933 345.347 11.16 345.88C11.64 346.413 11.88 347.133 11.88 348.04C11.88 348.813 11.6667 349.513 11.24 350.14C10.8267 350.767 10.1933 351.267 9.34 351.64C8.48667 352.013 7.44667 352.2 6.22 352.2ZM20.6381 351.42C20.3448 351.66 19.9848 351.84 19.5581 351.96C19.1448 352.08 18.7048 352.14 18.2381 352.14C17.0648 352.14 16.1581 351.833 15.5181 351.22C14.8781 350.607 14.5581 349.713 14.5581 348.54V343.4H12.7981V341.4H14.5581V338.96H17.0581V341.4H19.9181V343.4H17.0581V348.48C17.0581 349 17.1848 349.4 17.4381 349.68C17.6915 349.947 18.0581 350.08 18.5381 350.08C19.0981 350.08 19.5648 349.933 19.9381 349.64L20.6381 351.42ZM22.6947 341.32H25.1947V352H22.6947V341.32ZM23.9547 339.56C23.5014 339.56 23.1214 339.42 22.8147 339.14C22.508 338.847 22.3547 338.487 22.3547 338.06C22.3547 337.633 22.508 337.28 22.8147 337C23.1214 336.707 23.5014 336.56 23.9547 336.56C24.408 336.56 24.788 336.7 25.0947 336.98C25.4014 337.247 25.5547 337.587 25.5547 338C25.5547 338.44 25.4014 338.813 25.0947 339.12C24.8014 339.413 24.4214 339.56 23.9547 339.56ZM32.8359 347.42L30.9759 349.18V352H28.4759V337.16H30.9759V346.12L36.1559 341.32H39.1559L34.6959 345.8L39.5759 352H36.5359L32.8359 347.42ZM44.1588 352.14C43.2921 352.14 42.4454 352.027 41.6188 351.8C40.7921 351.573 40.1321 351.287 39.6388 350.94L40.5988 349.04C41.0788 349.36 41.6521 349.62 42.3188 349.82C42.9988 350.007 43.6654 350.1 44.3188 350.1C45.8121 350.1 46.5588 349.707 46.5588 348.92C46.5588 348.547 46.3654 348.287 45.9788 348.14C45.6054 347.993 44.9988 347.853 44.1588 347.72C43.2788 347.587 42.5588 347.433 41.9988 347.26C41.4521 347.087 40.9721 346.787 40.5588 346.36C40.1588 345.92 39.9588 345.313 39.9588 344.54C39.9588 343.527 40.3788 342.72 41.2188 342.12C42.0721 341.507 43.2188 341.2 44.6588 341.2C45.3921 341.2 46.1254 341.287 46.8588 341.46C47.5921 341.62 48.1921 341.84 48.6588 342.12L47.6988 344.02C46.7921 343.487 45.7721 343.22 44.6388 343.22C43.9054 343.22 43.3454 343.333 42.9588 343.56C42.5854 343.773 42.3988 344.06 42.3988 344.42C42.3988 344.82 42.5988 345.107 42.9988 345.28C43.4121 345.44 44.0454 345.593 44.8988 345.74C45.7521 345.873 46.4521 346.027 46.9988 346.2C47.5454 346.373 48.0121 346.667 48.3988 347.08C48.7988 347.493 48.9988 348.08 48.9988 348.84C48.9988 349.84 48.5654 350.64 47.6988 351.24C46.8321 351.84 45.6521 352.14 44.1588 352.14ZM57.5717 351.42C57.2784 351.66 56.9184 351.84 56.4917 351.96C56.0784 352.08 55.6384 352.14 55.1717 352.14C53.9984 352.14 53.0917 351.833 52.4517 351.22C51.8117 350.607 51.4917 349.713 51.4917 348.54V343.4H49.7317V341.4H51.4917V338.96H53.9917V341.4H56.8517V343.4H53.9917V348.48C53.9917 349 54.1184 349.4 54.3717 349.68C54.6251 349.947 54.9917 350.08 55.4717 350.08C56.0317 350.08 56.4984 349.933 56.8717 349.64L57.5717 351.42ZM64.0767 352.14C62.9967 352.14 62.0234 351.907 61.1567 351.44C60.2901 350.973 59.6101 350.327 59.1167 349.5C58.6367 348.66 58.3967 347.713 58.3967 346.66C58.3967 345.607 58.6367 344.667 59.1167 343.84C59.6101 343.013 60.2901 342.367 61.1567 341.9C62.0234 341.433 62.9967 341.2 64.0767 341.2C65.1701 341.2 66.1501 341.433 67.0167 341.9C67.8834 342.367 68.5567 343.013 69.0367 343.84C69.5301 344.667 69.7767 345.607 69.7767 346.66C69.7767 347.713 69.5301 348.66 69.0367 349.5C68.5567 350.327 67.8834 350.973 67.0167 351.44C66.1501 351.907 65.1701 352.14 64.0767 352.14ZM64.0767 350C64.9967 350 65.7567 349.693 66.3567 349.08C66.9567 348.467 67.2567 347.66 67.2567 346.66C67.2567 345.66 66.9567 344.853 66.3567 344.24C65.7567 343.627 64.9967 343.32 64.0767 343.32C63.1567 343.32 62.3967 343.627 61.7967 344.24C61.2101 344.853 60.9167 345.66 60.9167 346.66C60.9167 347.66 61.2101 348.467 61.7967 349.08C62.3967 349.693 63.1567 350 64.0767 350ZM76.5073 339.04C75.454 339.04 74.9273 339.613 74.9273 340.76V341.4H77.8673V343.4H75.0073V352H72.5073V343.4H70.7473V341.4H72.5073V340.72C72.5073 339.573 72.8407 338.673 73.5073 338.02C74.174 337.353 75.114 337.02 76.3273 337.02C77.2873 337.02 78.0407 337.213 78.5873 337.6L77.8873 339.48C77.4607 339.187 77.0007 339.04 76.5073 339.04Z" fill="#F80D0D"/>
<path d="M51 363V391H45.68L31.72 374V391H25.32V363H30.68L44.6 380V363H51Z" fill="#F80D0D"/>
<path d="M31.05 400.4V413H28.656L22.374 405.35V413H19.494V400.4H21.906L28.17 408.05V400.4H31.05Z" fill="#F80D0D"/>
<path d="M57.05 400.4V413H54.656L48.374 405.35V413H45.494V400.4H47.906L54.17 408.05V400.4H57.05Z" fill="#F80D0D"/>
<path d="M34 404H43" stroke="#F80D0D"/>
<path d="M34 407H43" stroke="#F80D0D"/>
<path d="M34 410H43" stroke="#F80D0D"/>
<path d="M202.76 349.8V352H190.82V350.26L199.06 340.2H190.96V338H202.5V339.74L194.26 349.8H202.76ZM215.144 341.32V352H212.764V350.64C212.364 351.12 211.864 351.493 211.264 351.76C210.664 352.013 210.017 352.14 209.324 352.14C207.897 352.14 206.771 351.747 205.944 350.96C205.131 350.16 204.724 348.98 204.724 347.42V341.32H207.224V347.08C207.224 348.04 207.437 348.76 207.864 349.24C208.304 349.707 208.924 349.94 209.724 349.94C210.617 349.94 211.324 349.667 211.844 349.12C212.377 348.56 212.644 347.76 212.644 346.72V341.32H215.144ZM228.757 341.32V352H226.377V350.64C225.977 351.12 225.477 351.493 224.877 351.76C224.277 352.013 223.631 352.14 222.937 352.14C221.511 352.14 220.384 351.747 219.557 350.96C218.744 350.16 218.337 348.98 218.337 347.42V341.32H220.837V347.08C220.837 348.04 221.051 348.76 221.477 349.24C221.917 349.707 222.537 349.94 223.337 349.94C224.231 349.94 224.937 349.667 225.457 349.12C225.991 348.56 226.257 347.76 226.257 346.72V341.32H228.757ZM234.411 342.88C235.131 341.76 236.397 341.2 238.211 341.2V343.58C237.997 343.54 237.804 343.52 237.631 343.52C236.657 343.52 235.897 343.807 235.351 344.38C234.804 344.94 234.531 345.753 234.531 346.82V352H232.031V341.32H234.411V342.88ZM243.67 352.14C242.804 352.14 241.957 352.027 241.13 351.8C240.304 351.573 239.644 351.287 239.15 350.94L240.11 349.04C240.59 349.36 241.164 349.62 241.83 349.82C242.51 350.007 243.177 350.1 243.83 350.1C245.324 350.1 246.07 349.707 246.07 348.92C246.07 348.547 245.877 348.287 245.49 348.14C245.117 347.993 244.51 347.853 243.67 347.72C242.79 347.587 242.07 347.433 241.51 347.26C240.964 347.087 240.484 346.787 240.07 346.36C239.67 345.92 239.47 345.313 239.47 344.54C239.47 343.527 239.89 342.72 240.73 342.12C241.584 341.507 242.73 341.2 244.17 341.2C244.904 341.2 245.637 341.287 246.37 341.46C247.104 341.62 247.704 341.84 248.17 342.12L247.21 344.02C246.304 343.487 245.284 343.22 244.15 343.22C243.417 343.22 242.857 343.333 242.47 343.56C242.097 343.773 241.91 344.06 241.91 344.42C241.91 344.82 242.11 345.107 242.51 345.28C242.924 345.44 243.557 345.593 244.41 345.74C245.264 345.873 245.964 346.027 246.51 346.2C247.057 346.373 247.524 346.667 247.91 347.08C248.31 347.493 248.51 348.08 248.51 348.84C248.51 349.84 248.077 350.64 247.21 351.24C246.344 351.84 245.164 352.14 243.67 352.14ZM257.083 351.42C256.79 351.66 256.43 351.84 256.003 351.96C255.59 352.08 255.15 352.14 254.683 352.14C253.51 352.14 252.603 351.833 251.963 351.22C251.323 350.607 251.003 349.713 251.003 348.54V343.4H249.243V341.4H251.003V338.96H253.503V341.4H256.363V343.4H253.503V348.48C253.503 349 253.63 349.4 253.883 349.68C254.137 349.947 254.503 350.08 254.983 350.08C255.543 350.08 256.01 349.933 256.383 349.64L257.083 351.42ZM263.588 352.14C262.508 352.14 261.535 351.907 260.668 351.44C259.802 350.973 259.122 350.327 258.628 349.5C258.148 348.66 257.908 347.713 257.908 346.66C257.908 345.607 258.148 344.667 258.628 343.84C259.122 343.013 259.802 342.367 260.668 341.9C261.535 341.433 262.508 341.2 263.588 341.2C264.682 341.2 265.662 341.433 266.528 341.9C267.395 342.367 268.068 343.013 268.548 343.84C269.042 344.667 269.288 345.607 269.288 346.66C269.288 347.713 269.042 348.66 268.548 349.5C268.068 350.327 267.395 350.973 266.528 351.44C265.662 351.907 264.682 352.14 263.588 352.14ZM263.588 350C264.508 350 265.268 349.693 265.868 349.08C266.468 348.467 266.768 347.66 266.768 346.66C266.768 345.66 266.468 344.853 265.868 344.24C265.268 343.627 264.508 343.32 263.588 343.32C262.668 343.32 261.908 343.627 261.308 344.24C260.722 344.853 260.428 345.66 260.428 346.66C260.428 347.66 260.722 348.467 261.308 349.08C261.908 349.693 262.668 350 263.588 350ZM276.019 339.04C274.966 339.04 274.439 339.613 274.439 340.76V341.4H277.379V343.4H274.519V352H272.019V343.4H270.259V341.4H272.019V340.72C272.019 339.573 272.352 338.673 273.019 338.02C273.686 337.353 274.626 337.02 275.839 337.02C276.799 337.02 277.552 337.213 278.099 337.6L277.399 339.48C276.972 339.187 276.512 339.04 276.019 339.04Z" fill="#F80D0D"/>
<path d="M233.88 391.48C230.973 391.48 228.347 390.853 226 389.6C223.68 388.347 221.853 386.627 220.52 384.44C219.213 382.227 218.56 379.747 218.56 377C218.56 374.253 219.213 371.787 220.52 369.6C221.853 367.387 223.68 365.653 226 364.4C228.347 363.147 230.973 362.52 233.88 362.52C236.787 362.52 239.4 363.147 241.72 364.4C244.04 365.653 245.867 367.387 247.2 369.6C248.533 371.787 249.2 374.253 249.2 377C249.2 379.747 248.533 382.227 247.2 384.44C245.867 386.627 244.04 388.347 241.72 389.6C239.4 390.853 236.787 391.48 233.88 391.48ZM233.88 385.96C235.533 385.96 237.027 385.587 238.36 384.84C239.693 384.067 240.733 383 241.48 381.64C242.253 380.28 242.64 378.733 242.64 377C242.64 375.267 242.253 373.72 241.48 372.36C240.733 371 239.693 369.947 238.36 369.2C237.027 368.427 235.533 368.04 233.88 368.04C232.227 368.04 230.733 368.427 229.4 369.2C228.067 369.947 227.013 371 226.24 372.36C225.493 373.72 225.12 375.267 225.12 377C225.12 378.733 225.493 380.28 226.24 381.64C227.013 383 228.067 384.067 229.4 384.84C230.733 385.587 232.227 385.96 233.88 385.96Z" fill="#F80D0D"/>
<path d="M221.596 413.216C220.288 413.216 219.106 412.934 218.05 412.37C217.006 411.806 216.184 411.032 215.584 410.048C214.996 409.052 214.702 407.936 214.702 406.7C214.702 405.464 214.996 404.354 215.584 403.37C216.184 402.374 217.006 401.594 218.05 401.03C219.106 400.466 220.288 400.184 221.596 400.184C222.904 400.184 224.08 400.466 225.124 401.03C226.168 401.594 226.99 402.374 227.59 403.37C228.19 404.354 228.49 405.464 228.49 406.7C228.49 407.936 228.19 409.052 227.59 410.048C226.99 411.032 226.168 411.806 225.124 412.37C224.08 412.934 222.904 413.216 221.596 413.216ZM221.596 410.732C222.34 410.732 223.012 410.564 223.612 410.228C224.212 409.88 224.68 409.4 225.016 408.788C225.364 408.176 225.538 407.48 225.538 406.7C225.538 405.92 225.364 405.224 225.016 404.612C224.68 404 224.212 403.526 223.612 403.19C223.012 402.842 222.34 402.668 221.596 402.668C220.852 402.668 220.18 402.842 219.58 403.19C218.98 403.526 218.506 404 218.158 404.612C217.822 405.224 217.654 405.92 217.654 406.7C217.654 407.48 217.822 408.176 218.158 408.788C218.506 409.4 218.98 409.88 219.58 410.228C220.18 410.564 220.852 410.732 221.596 410.732Z" fill="#F80D0D"/>
<path d="M249.596 413.216C248.288 413.216 247.106 412.934 246.05 412.37C245.006 411.806 244.184 411.032 243.584 410.048C242.996 409.052 242.702 407.936 242.702 406.7C242.702 405.464 242.996 404.354 243.584 403.37C244.184 402.374 245.006 401.594 246.05 401.03C247.106 400.466 248.288 400.184 249.596 400.184C250.904 400.184 252.08 400.466 253.124 401.03C254.168 401.594 254.99 402.374 255.59 403.37C256.19 404.354 256.49 405.464 256.49 406.7C256.49 407.936 256.19 409.052 255.59 410.048C254.99 411.032 254.168 411.806 253.124 412.37C252.08 412.934 250.904 413.216 249.596 413.216ZM249.596 410.732C250.34 410.732 251.012 410.564 251.612 410.228C252.212 409.88 252.68 409.4 253.016 408.788C253.364 408.176 253.538 407.48 253.538 406.7C253.538 405.92 253.364 405.224 253.016 404.612C252.68 404 252.212 403.526 251.612 403.19C251.012 402.842 250.34 402.668 249.596 402.668C248.852 402.668 248.18 402.842 247.58 403.19C246.98 403.526 246.506 404 246.158 404.612C245.822 405.224 245.654 405.92 245.654 406.7C245.654 407.48 245.822 408.176 246.158 408.788C246.506 409.4 246.98 409.88 247.58 410.228C248.18 410.564 248.852 410.732 249.596 410.732Z" fill="#F80D0D"/>
<path d="M231 404H240" stroke="#F80D0D"/>
<path d="M231 407H240" stroke="#F80D0D"/>
<path d="M231 410H240" stroke="#F80D0D"/>
<path d="M136.5 229.235L136.5 135" stroke="#12184C" stroke-width="3"/>
<path d="M234 304L136 228" stroke="#12184C" stroke-width="3"/>
<path d="M39 304L137 228" stroke="#12184C" stroke-width="3"/>
</svg>
